<?xml version="1.0" encoding="UTF-8"?>
<svg version="1.1" xmlns="http://www.w3.org/2000/svg" width="2000" height="2000">
<path d="M0 0 C660 0 1320 0 2000 0 C2000 660 2000 1320 2000 2000 C1340 2000 680 2000 0 2000 C0 1340 0 680 0 0 Z " fill="#FEFEFE" transform="translate(0,0)"/>
<path d="M0 0 C0 132.33 0 264.66 0 401 C-212.52 401 -425.04 401 -644 401 C-642.24226701 397.48453401 -637.82488562 396.73312792 -634.3125 395.3125 C-612.2616173 386.09942037 -591.16316003 374.95860822 -570.70947266 362.62597656 C-568.13460435 361.08077717 -565.54565926 359.56328523 -562.94921875 358.0546875 C-532.86018031 340.47282693 -504.76068818 319.54462349 -477.82470703 297.49267578 C-476.21776304 296.17813798 -474.60720809 294.86801698 -472.99609375 293.55859375 C-462.92821765 285.36653736 -453.0261603 277.02940114 -443.46484375 268.25 C-441.41884046 266.38233297 -439.34982843 264.55630403 -437.25 262.75 C-425.83144657 252.77886884 -415.05114977 242.16215429 -404.40942383 231.37255859 C-400.05816582 226.97775898 -395.65318645 222.76065319 -390.95874023 218.73608398 C-387.30422134 215.49698591 -383.92034427 211.98264562 -380.5 208.5 C-375.77050077 203.68435324 -370.99359477 199.02872992 -365.87548828 194.62597656 C-363.07656187 192.19941448 -360.388719 189.65904536 -357.6875 187.125 C-352.84130801 182.61137599 -347.85012954 178.36156986 -342.68359375 174.21484375 C-339.84761459 171.87423213 -337.14147155 169.4290979 -334.4375 166.9375 C-330.33316383 163.16892053 -326.13926132 159.60857354 -321.7578125 156.16796875 C-319.73895234 154.58090446 -317.73579724 152.9814259 -315.7421875 151.36328125 C-306.15376795 143.59492864 -296.34711437 136.13935932 -286.42871094 128.79785156 C-284.91172961 127.67490721 -283.39645985 126.54964263 -281.88378906 125.42089844 C-213.65378626 74.57306326 -136.3793645 33.23039862 -54 11 C-52.42833106 10.56660332 -50.85671566 10.13301243 -49.28515625 9.69921875 C-40.49304568 7.30195536 -31.65292378 5.195527 -22.75 3.25 C-21.78529785 3.03915771 -20.8205957 2.82831543 -19.82666016 2.61108398 C-13.18248336 1.18783199 -6.82393126 0 0 0 Z " fill="#4169E1" transform="translate(1402,1178)"/>
<path d="M0 0 C212.52 0 425.04 0 644 0 C641.82682504 2.17317496 640.24614191 2.86826505 637.42578125 4.0390625 C636.46430176 4.44600342 635.50282227 4.85294434 634.51220703 5.2722168 C632.92835205 5.94184448 632.92835205 5.94184448 631.3125 6.625 C606.17808384 17.49874151 582.31221264 30.66430706 559 45 C558.09266113 45.55703613 557.18532227 46.11407227 556.25048828 46.68798828 C523.93125843 66.6156416 493.44365161 89.49130729 464.57446289 114.12646484 C461.32530822 116.89648382 458.02519151 119.58779368 454.6875 122.25 C449.15551628 126.74372285 443.99305161 131.59859277 438.83276367 136.50878906 C434.9104629 140.23791442 430.92231993 143.85882323 426.81713867 147.38623047 C424.39300701 149.53906001 422.14359734 151.84339087 419.87504578 154.1578064 C418.06365296 155.93746228 416.1941589 157.59141764 414.26367188 159.24023438 C410.08582688 162.87433138 406.17056518 166.71769391 402.28125 170.65625 C401.57907349 171.36221313 400.87689697 172.06817627 400.15344238 172.79553223 C397.93315397 175.02791358 395.71616045 177.26352111 393.5 179.5 C390.57590521 182.45090378 387.64836943 185.39833203 384.71875 188.34375 C384.063302 189.00749634 383.407854 189.67124268 382.73254395 190.35510254 C378.87529506 194.23243999 374.90071605 197.90555381 370.7598877 201.47839355 C368.79363532 203.17842379 366.88670338 204.93101432 365 206.71875 C364.34 207.34136719 363.68 207.96398438 363 208.60546875 C362.34 209.23066406 361.68 209.85585937 361 210.5 C342.04308968 228.4572295 321.65264763 245.0354382 301 261 C300.22672363 261.60070313 299.45344727 262.20140625 298.65673828 262.8203125 C287.84610617 271.20653976 276.90286401 279.27638692 265.55078125 286.9140625 C261.83453309 289.41682576 258.18245267 291.9972226 254.54467773 294.61230469 C246.05989118 300.70334136 237.33175667 306.2447775 228.36083984 311.58935547 C225.91712339 313.04952027 223.48322394 314.52504574 221.05078125 316.00390625 C178.85115308 341.60523226 134.67710529 362.8977025 88 379 C86.92041016 379.37753418 85.84082031 379.75506836 84.72851562 380.14404297 C24.95018344 401 24.95018344 401 0 401 C0 268.67 0 136.34 0 0 Z " fill="#D2042D" transform="translate(598,1086)"/>
<path d="M0 0 C185.39037089 0 185.39037089 0 198.3125 4.6875 C199.05902832 4.95022705 199.80555664 5.2129541 200.57470703 5.48364258 C220.27153203 12.69109255 233.24383399 26.15248221 242.77734375 44.40234375 C250.43510874 61.10133764 253.06422823 78.89560368 255 97 C255.17063655 98.44420414 255.3415565 99.88837482 255.51269531 101.33251953 C257.02354579 114.56418881 257.39939635 127.68914367 257.375 141 C257.37478851 142.07072754 257.37457703 143.14145508 257.37435913 144.24462891 C257.31612403 173.86228325 256.30410217 210.16671189 234.30078125 232.76171875 C233.54152344 233.50035156 232.78226563 234.23898437 232 235 C230.96939453 236.06154297 230.96939453 236.06154297 229.91796875 237.14453125 C224.07079359 242.81813535 214.4170329 250 206 250 C206 250.66 206 251.32 206 252 C206.969375 252.0825 207.93875 252.165 208.9375 252.25 C220.32279381 253.92228662 230.38405152 261.16426843 237.15234375 270.1796875 C246.06517647 283.78447656 250.11887431 300.12188142 250.12939453 316.27807617 C250.13112419 316.96860738 250.13285385 317.65913858 250.13463593 318.37059498 C250.13899387 320.67807718 250.13602989 322.98548553 250.1328125 325.29296875 C250.13383379 326.98071311 250.13517644 328.6684573 250.1368103 330.35620117 C250.13954463 334.99201561 250.13496829 339.62779717 250.12857056 344.26360703 C250.12499582 347.19092662 250.12337769 350.11824124 250.12231445 353.04556274 C250.09671665 410.36508038 249.51929051 467.68331034 249 525 C215.01 525 181.02 525 146 525 C145.96261719 509.37914062 145.92523437 493.75828125 145.88671875 477.6640625 C145.856447 467.77473067 145.82542628 457.88541061 145.79101562 447.99609375 C145.73652352 432.29542096 145.68511077 416.59478087 145.65356445 400.89404297 C145.63057547 389.45933376 145.59716721 378.02471034 145.55129844 366.59006917 C145.52737855 360.53670379 145.50864161 354.4834233 145.50238609 348.43001175 C145.49632977 342.72877245 145.47630969 337.02775033 145.44572449 331.32659149 C145.43695312 329.23770787 145.43321981 327.14879585 145.43499184 325.05989456 C145.43665189 322.19923687 145.41988292 319.33923556 145.39872742 316.47866821 C145.40357499 315.6595699 145.40842257 314.84047158 145.41341704 313.99655211 C145.32780983 306.94186881 143.90803776 300.250731 140.3125 294.125 C130.97910479 285.54836656 119.28154091 286.72244358 107 286 C107 364.87 107 443.74 107 525 C71.69 525 36.38 525 0 525 C0 351.75 0 178.5 0 0 Z " fill="#D2052D" transform="translate(583,510)"/>
<path d="M0 0 C0.90707703 0.00149048 1.81415405 0.00298096 2.74871826 0.0045166 C17.09019865 0.04688621 31.12808874 0.5831548 45.25 3.3125 C45.95044434 3.44640137 46.65088867 3.58030273 47.37255859 3.71826172 C72.10199801 8.74209514 96.58417035 22.30865922 111.2265625 43.18359375 C129.72716209 71.79166377 132.58718409 100.61368845 132.45256042 133.88366699 C132.44102087 137.20336482 132.44062617 140.52305799 132.43920898 143.84277344 C132.42878739 153.49936705 132.40086498 163.1559354 132.375 172.8125 C132.33375 194.4275 132.2925 216.0425 132.25 238.3125 C80.77 238.3125 29.29 238.3125 -23.75 238.3125 C-23.62625 254.1525 -23.5025 269.9925 -23.375 286.3125 C-23.34100098 291.283125 -23.30700195 296.25375 -23.27197266 301.375 C-23.23198908 305.89600749 -23.23198908 305.89600749 -23.18954468 310.41699219 C-23.1720526 312.40459529 -23.15816496 314.39223239 -23.14730835 316.37988281 C-23.81223833 343.3400462 -23.81223833 343.3400462 -14.5 367.875 C-8.5890394 373.11426053 -2.49444812 373.89778877 5.28125 373.65234375 C10.68804627 373.03340786 15.23151716 371.68223843 18.84375 367.44140625 C26.33515466 355.92119385 25.40788555 343.06152308 25.56640625 329.80078125 C25.59438293 327.87123596 25.59438293 327.87123596 25.6229248 325.90270996 C25.6907065 321.14353647 25.75118261 316.38426117 25.8125 311.625 C25.956875 300.961875 26.10125 290.29875 26.25 279.3125 C61.23 279.3125 96.21 279.3125 132.25 279.3125 C133.59110326 388.47830529 133.59110326 388.47830529 96.82421875 426.84375 C81.64497742 441.41582168 63.07829631 448.46731481 42.875 453.1875 C42.00866943 453.39084961 41.14233887 453.59419922 40.24975586 453.80371094 C13.01980892 459.73768483 -20.74091686 458.89058058 -47.75 452.3125 C-48.46462402 452.14121582 -49.17924805 451.96993164 -49.91552734 451.79345703 C-73.30024956 445.85746683 -94.43519443 431.04026982 -107.15625 410.5234375 C-112.32582491 401.82537179 -116.35587716 392.82993803 -119.75 383.3125 C-120.41128906 381.50458984 -120.41128906 381.50458984 -121.0859375 379.66015625 C-129.3303908 355.45144338 -131.06794285 329.00975778 -131.00878906 303.61035156 C-131.01150775 301.61533481 -131.01507355 299.62031907 -131.01940918 297.62530518 C-131.02843353 292.26552721 -131.0250299 286.90582728 -131.01865101 281.54604816 C-131.01353607 275.89542261 -131.01829781 270.2448031 -131.02142334 264.59417725 C-131.02504833 255.10606709 -131.02030384 245.6179882 -131.01074219 236.12988281 C-130.99987309 225.21962733 -131.00337797 214.30944671 -131.014395 203.39919305 C-131.02352499 193.97431819 -131.02472507 184.54946563 -131.01951766 175.12458777 C-131.01642752 169.52101656 -131.01590569 163.9174803 -131.02259064 158.31391144 C-131.02844683 153.03760599 -131.02421911 147.76139521 -131.01280212 142.48509979 C-131.01019855 140.56935278 -131.01084492 138.65359754 -131.01532745 136.737854 C-131.03706953 126.48578295 -130.72363939 116.32710807 -129.87054443 106.10736084 C-129.79464403 105.17549965 -129.71874363 104.24363846 -129.64054322 103.28353906 C-127.39785867 78.77973375 -116.99060091 55.69310789 -100.75 37.3125 C-99.95722656 36.39404297 -99.95722656 36.39404297 -99.1484375 35.45703125 C-84.57081206 19.72067148 -63.02730558 9.37279918 -42.375 4.6875 C-41.5190625 4.48382812 -40.663125 4.28015625 -39.78125 4.0703125 C-37.11068192 3.44850859 -34.43407757 2.87296738 -31.75 2.3125 C-30.87794922 2.12051025 -30.00589844 1.92852051 -29.10742188 1.73071289 C-19.45881765 -0.16334125 -9.79196759 -0.03952403 0 0 Z " fill="#D2042D" transform="translate(999.75,582.6875)"/>
<path d="M0 0 C1.18728699 -0.00151062 1.18728699 -0.00151062 2.39855957 -0.00305176 C16.04546688 0.00863754 29.35962831 0.80548857 42.8125 3.25 C43.91464844 3.44287598 43.91464844 3.44287598 45.0390625 3.63964844 C69.24041427 8.09242524 93.30249269 21.87664889 108.125 41.6875 C109.38053442 43.52391445 110.60993271 45.37847211 111.8125 47.25 C112.42867187 48.20777344 113.04484375 49.16554688 113.6796875 50.15234375 C130.14739371 77.04488543 131.8125 107.40481778 131.8125 138.25 C95.1825 138.25 58.5525 138.25 20.8125 138.25 C20.4825 129.34 20.1525 120.43 19.8125 111.25 C17.68165185 96.30825609 17.68165185 96.30825609 8.25 85.25 C3.01015918 82.32797157 -2.36278089 82.41117773 -8.1875 83.25 C-14.12954084 85.00226575 -17.74680789 88.19015867 -21.1875 93.25 C-25.5063049 104.03938185 -23.76225512 115.41167468 -19.6640625 125.9375 C-14.32740829 137.90967665 -3.61791546 145.10227439 6.8203125 152.42578125 C11.28733649 155.5666224 15.67405789 158.81318921 20.0625 162.0625 C26.34531287 166.70886808 32.65525289 171.31359671 39 175.875 C54.45274041 187.00043303 69.9213063 198.18612116 83.8125 211.25 C84.65022949 212.03673096 84.65022949 212.03673096 85.50488281 212.83935547 C106.03358834 232.28033776 122.13196008 255.16025904 129.625 282.6875 C129.81989014 283.3889917 130.01478027 284.0904834 130.21557617 284.81323242 C133.54188584 297.92056374 134.13157141 311.42585666 134.01831055 324.88183594 C133.99983433 327.14529565 133.99780359 329.4083469 133.99804688 331.671875 C133.91889076 366.68224399 124.17822618 397.14768889 99.6875 422.75 C85.78531307 436.2713051 69.22963835 444.93392554 50.75 450.625 C49.65631104 450.9648291 49.65631104 450.9648291 48.54052734 451.31152344 C33.5355764 455.61715122 18.69328394 456.72075604 3.16235352 456.58618164 C0.24923041 456.56249374 -2.66297588 456.56566307 -5.57617188 456.57226562 C-20.54020497 456.55145378 -35.33655148 455.95110284 -49.75 451.5625 C-50.62857666 451.30122314 -51.50715332 451.03994629 -52.41235352 450.77075195 C-79.80942011 442.36135729 -102.73391344 426.45047 -116.87255859 400.97753906 C-125.88890631 383.76847134 -129.95675662 365.41879115 -132.1875 346.25 C-132.3421875 344.95002075 -132.3421875 344.95002075 -132.5 343.6237793 C-133.27317988 336.29830834 -133.34052207 328.98615149 -133.31787109 321.62719727 C-133.31255273 319.58276803 -133.31782763 317.53856287 -133.32421875 315.49414062 C-133.32355696 314.13802037 -133.32227372 312.78190025 -133.3203125 311.42578125 C-133.31918457 310.23895752 -133.31805664 309.05213379 -133.31689453 307.8293457 C-133.1228495 300.96198231 -132.61604533 294.10672534 -132.1875 287.25 C-96.8775 287.25 -61.5675 287.25 -25.1875 287.25 C-24.875 316 -24.875 316 -24.79956055 325.00292969 C-24.76723575 327.39259357 -24.73385717 329.78224353 -24.69921875 332.171875 C-24.69297485 333.38439941 -24.68673096 334.59692383 -24.68029785 335.84619141 C-24.50564703 346.32524077 -23.57166419 358.12351243 -16.1875 366.25 C-10.57512527 371.26410128 -3.03919123 370.95104684 4.0859375 370.6171875 C9.11479617 370.12168151 11.10442097 369.71087376 14.8125 366.25 C24.10741986 352.48347004 23.62452561 332.65862759 20.8125 316.875 C17.04980245 302.36173801 9.49577931 291.50191277 -1.1875 281.25 C-2.50041016 279.96029297 -2.50041016 279.96029297 -3.83984375 278.64453125 C-10.20470616 272.62423282 -17.11501582 267.4375516 -24.15234375 262.24609375 C-27.84227366 259.52088573 -31.46514808 256.72090043 -35.0625 253.875 C-36.20439693 252.97261809 -37.34632473 252.07027524 -38.48828125 251.16796875 C-39.07818848 250.70181152 -39.6680957 250.2356543 -40.27587891 249.75537109 C-43.92198558 246.8841203 -47.58635745 244.0363184 -51.25 241.1875 C-52.01562256 240.59187256 -52.78124512 239.99624512 -53.57006836 239.38256836 C-57.54026945 236.29690003 -61.51972851 233.22414543 -65.51416016 230.16992188 C-75.42469384 222.58756752 -85.05488235 214.75928025 -94.1875 206.25 C-94.99960938 205.50363281 -95.81171875 204.75726562 -96.6484375 203.98828125 C-119.6578966 182.0313053 -130.51014177 152.06515706 -131.39068604 120.58740234 C-131.46312089 117.16245984 -131.48908286 113.73813399 -131.5 110.3125 C-131.50563965 109.02102051 -131.5112793 107.72954102 -131.51708984 106.39892578 C-131.30850272 78.8760315 -121.72114121 56.07260096 -102.94140625 35.9453125 C-75.52361804 9.11088148 -37.21329282 0.03296816 0 0 Z " fill="#D2042D" transform="translate(1294.1875,582.75)"/>
<path d="M0 0 C8.39206219 9.17271914 10.1340536 22.5786449 10.11352539 34.58764648 C10.11367142 35.31043289 10.11381744 36.0332193 10.1139679 36.77790833 C10.11327699 39.14233511 10.10552352 41.5066809 10.09765625 43.87109375 C10.09578914 45.52018694 10.09436662 47.16928069 10.09336853 48.81837463 C10.0895664 53.14034581 10.07975597 57.46228292 10.06866455 61.78424072 C10.05659335 66.97975714 10.05203721 72.17528501 10.04621124 77.37081146 C10.03654283 85.24723127 10.01737021 93.12357646 10 101 C-6.83 101 -23.66 101 -41 101 C-41.04220004 92.95620443 -41.08223961 84.91282111 -41.10350037 76.86901093 C-41.11396406 73.12136489 -41.12789199 69.37381263 -41.15087891 65.6262207 C-41.45692754 14.33114787 -41.45692754 14.33114787 -30 1 C-21.28088956 -6.23884738 -9.06927864 -7.38725703 0 0 Z " fill="#FEFBFC" transform="translate(1016,667)"/>
<path d="M0 0 C34.86046512 0 34.86046512 0 40.8125 5.6875 C48.11635448 16.7476225 47.1866217 29.51866452 47.18530273 42.3112793 C47.18747955 44.66538861 47.20566695 47.01902058 47.22460938 49.37304688 C47.32459501 75.84997323 47.32459501 75.84997323 41 87 C40.4225 88.093125 39.845 89.18625 39.25 90.3125 C37 93 37 93 29 97 C19.43 97 9.86 97 0 97 C0 64.99 0 32.98 0 0 Z " fill="#FEFCFD" transform="translate(690,607)"/>
</svg>
