<?xml version="1.0" encoding="UTF-8"?>
<svg version="1.1" xmlns="http://www.w3.org/2000/svg" width="2000" height="2000">
<path d="M0 0 C660 0 1320 0 2000 0 C2000 660 2000 1320 2000 2000 C1340 2000 680 2000 0 2000 C0 1340 0 680 0 0 Z " fill="#FEFEFE" transform="translate(0,0)"/>
<path d="M0 0 C660 0 1320 0 2000 0 C2000 5.61 2000 11.22 2000 17 C1997.31281982 18.41727589 1994.62530754 19.83391455 1991.9375 21.25 C1990.66386597 21.92119873 1990.66386597 21.92119873 1989.36450195 22.60595703 C1984.71303276 25.05463145 1980.05671185 27.4933473 1975.390625 29.9140625 C1963.19320917 36.24339603 1951.07779009 42.70190437 1939.0390625 49.328125 C1935.74688269 51.13924705 1932.45154805 52.94455831 1929.15625 54.75 C1913.47215524 63.35365312 1897.89357142 72.1286404 1882.38916016 81.05175781 C1879.07919067 82.95447763 1875.76474291 84.8491671 1872.44921875 86.7421875 C1858.27510704 94.85254246 1844.27254161 103.21944103 1830.34211731 111.73852539 C1826.12708858 114.31533095 1821.90368053 116.87796738 1817.67578125 119.43359375 C1805.14948796 127.00782897 1792.66729425 134.63974395 1780.328125 142.51660156 C1777.87888395 144.07717084 1775.42429722 145.62906183 1772.96875 147.1796875 C1734.94972312 171.22335476 1697.58940015 196.32723189 1660.72265625 222.09765625 C1658.06696735 223.95320932 1655.40876579 225.80510931 1652.75 227.65625 C1642.4972965 234.80263837 1632.32610702 242.05256464 1622.21337891 249.39550781 C1619.99304297 251.00504319 1617.76873958 252.60892787 1615.54296875 254.2109375 C1600.15703026 265.28652958 1584.89656988 276.50948137 1569.84326172 288.03393555 C1564.04682571 292.46395409 1558.2005503 296.81769134 1552.3125 301.125 C1543.76654795 307.38409473 1535.38663723 313.83907075 1527.05761719 320.38330078 C1525.1369172 321.8924222 1523.21350364 323.39799783 1521.2890625 324.90234375 C1514.6953891 330.06249049 1508.14437215 335.27404388 1501.61352539 340.51342773 C1497.34725604 343.93276197 1493.05588605 347.31824173 1488.75 350.6875 C1483.77536755 354.58385989 1478.85581233 358.53902171 1473.9765625 362.5546875 C1470.32938479 365.55092536 1466.66506461 368.52569036 1463 371.5 C1457.51302484 375.95507708 1452.03264361 380.41791507 1446.56640625 384.8984375 C1444.82654795 386.32316165 1443.08427984 387.74494709 1441.33984375 389.1640625 C1435.78509369 393.68778701 1430.29247584 398.27670125 1424.83422852 402.91577148 C1421.4408462 405.79520268 1418.01750083 408.63189727 1414.5625 411.4375 C1409.70156299 415.39276025 1404.9459244 419.45973471 1400.20043945 423.55175781 C1396.59454054 426.65426631 1392.94805175 429.69458523 1389.25 432.6875 C1384.87204487 436.23978815 1380.68886349 439.96031057 1376.5234375 443.7578125 C1373.94917642 446.04515904 1371.30710511 448.21548271 1368.625 450.375 C1364.06978862 454.05766385 1359.76087444 457.93026302 1355.4765625 461.91796875 C1352.28711489 464.86902981 1349.01653207 467.65978518 1345.625 470.375 C1339.89972931 474.98173011 1334.57819937 479.96812867 1329.22265625 484.9921875 C1326.17938059 487.8447641 1323.07055866 490.6092621 1319.9140625 493.3359375 C1315.891701 496.83292933 1311.95620434 500.42859365 1308 504 C1306.33359149 505.50028679 1304.66692647 507.00028872 1303 508.5 C1302.17242188 509.24507813 1301.34484375 509.99015625 1300.4921875 510.7578125 C1298.85260121 512.23292618 1297.21200345 513.70691652 1295.5703125 515.1796875 C1289.51916515 520.6121872 1283.51599237 526.09551002 1277.52783203 531.59716797 C1276.02879298 532.97356272 1274.52835924 534.34841739 1273.02734375 535.72265625 C1267.2887336 540.97689971 1261.56294566 546.24468939 1255.84912109 551.52587891 C1252.30566823 554.79959525 1248.74951708 558.05896614 1245.1875 561.3125 C1230.40756302 574.80333094 1230.40756302 574.80333094 1216.1875 588.875 C1214.31018882 590.69867372 1212.39244733 592.3921541 1210.40625 594.09375 C1205.17716782 598.63530471 1200.3599269 603.57034674 1195.5 608.5 C1193.70042547 610.32539339 1191.89838231 612.14835671 1190.09375 613.96875 C1189.30677734 614.76732422 1188.51980469 615.56589844 1187.70898438 616.38867188 C1185.62566681 618.39688787 1183.52588897 620.28594471 1181.33276367 622.16723633 C1177.03134602 625.92051439 1172.98724596 629.88531346 1168.96679688 633.93554688 C1168.20794693 634.69585709 1167.44909698 635.4561673 1166.66725159 636.23951721 C1165.03311376 637.87743678 1163.40013132 639.51650974 1161.76820374 641.15663147 C1159.1801881 643.75750347 1156.58898042 646.35515761 1153.99694824 648.95202637 C1148.49514734 654.46521105 1142.99728433 659.98231224 1137.5 665.5 C1131.12580278 671.89785535 1124.74997057 678.29406329 1118.36988831 684.68605042 C1115.82651294 687.23587233 1113.28618668 689.78870501 1110.74597168 692.3416748 C1109.17519825 693.91608334 1107.6042828 695.49035019 1106.03320312 697.06445312 C1105.33582535 697.76699722 1104.63844757 698.46954132 1103.91993713 699.19337463 C1099.98825894 703.12547015 1095.9529756 706.87202657 1091.73213196 710.49272156 C1089.34752022 712.56777932 1087.12443349 714.78036602 1084.90625 717.03125 C1084.02066406 717.92457031 1083.13507813 718.81789063 1082.22265625 719.73828125 C1080.87494141 721.10533203 1080.87494141 721.10533203 1079.5 722.5 C1074.08528779 727.99239819 1068.67785692 733.38610232 1062.81835938 738.40429688 C1059.90301558 740.9626598 1057.20931679 743.7271019 1054.5 746.5 C1050.45073088 750.60043002 1046.35369549 754.53149625 1041.95703125 758.26171875 C1038.63367918 761.21359834 1035.5681265 764.42492394 1032.4453125 767.5859375 C1029.70876521 770.28751294 1026.85020634 772.79078735 1023.9296875 775.2890625 C1021.24083452 777.67310624 1018.74522455 780.22816028 1016.25 782.8125 C1014.30563876 784.7028512 1012.32087883 786.48168855 1010.2734375 788.2578125 C1005.94613494 792.01641819 1001.78055114 795.92848538 997.625 799.875 C992.27254537 804.93584971 986.89482727 809.95486429 981.39453125 814.85546875 C978.53104496 817.41999399 975.70308365 820.02158335 972.875 822.625 C969.00649408 826.1827143 965.09665389 829.68289996 961.125 833.125 C958.38176506 835.54550142 955.69118757 838.02204178 953 840.5 C949.04140277 844.1441694 945.04823168 847.73913779 940.984375 851.265625 C936.94626738 854.79499465 932.98025811 858.40570631 929 862 C923.71670028 866.77097975 918.42215589 871.52361592 913.05078125 876.1953125 C910.73911203 878.22958141 908.4646857 880.3022231 906.1875 882.375 C901.9163648 886.23070563 897.50969554 889.87551065 893.0390625 893.49609375 C889.53893276 896.37987673 886.10879321 899.33601435 882.6875 902.3125 C882.05400635 902.86357422 881.4205127 903.41464844 880.76782227 903.98242188 C879.48168345 905.10162485 878.19563212 906.22092837 876.90966797 907.34033203 C868.9816951 914.23043169 860.99912027 921.03600825 852.84375 927.65625 C849.52313406 930.39302138 846.25956291 933.19106385 843 936 C837.98823702 940.31814961 832.91781618 944.54906686 827.78125 948.71875 C824.63615827 951.29843198 821.53532832 953.92646255 818.4375 956.5625 C813.9404864 960.38391513 809.39344067 964.12521508 804.76953125 967.79296875 C801.28631419 970.56873411 797.83021803 973.37700787 794.375 976.1875 C793.69348877 976.74147461 793.01197754 977.29544922 792.30981445 977.86621094 C788.83954595 980.68780462 785.37158998 983.51219949 781.90625 986.33984375 C773.90680573 992.86209595 765.85243514 999.30448733 757.71777344 1005.65722656 C754.80728359 1007.93233943 751.90408359 1010.21671982 749 1012.5 C747.82814765 1013.42060174 746.65627268 1014.34117471 745.484375 1015.26171875 C743.20217473 1017.05478524 740.92097944 1018.849118 738.640625 1020.64453125 C735.09701321 1023.43385556 731.5493366 1026.21796511 728 1029 C726.98728027 1029.79446533 726.98728027 1029.79446533 725.95410156 1030.60498047 C716.54142317 1037.98219408 707.05041229 1045.240535 697.46459961 1052.39135742 C691.90220633 1056.54902439 686.40322586 1060.77876362 680.9375 1065.0625 C672.54751519 1071.62913646 663.99645 1077.95895189 655.39550781 1084.24560547 C652.1972311 1086.58792268 649.00976248 1088.94473104 645.82177734 1091.30102539 C636.67288106 1098.0601168 627.47022703 1104.74165796 618.23828125 1111.38671875 C615.97933793 1113.01489256 613.72357339 1114.64737625 611.46875 1116.28125 C601.36679118 1123.59905021 591.21082276 1130.83494286 581 1138 C580.23494141 1138.53705566 579.46988281 1139.07411133 578.68164062 1139.62744141 C573.68291733 1143.13494033 568.67929248 1146.63536301 563.67285156 1150.13183594 C560.93376484 1152.04629443 558.1973584 1153.96454609 555.4609375 1155.8828125 C542.95531986 1164.63426721 530.32504019 1173.17632172 517.60205078 1181.60791016 C513.45642452 1184.35831916 509.32010156 1187.12262285 505.18359375 1189.88671875 C489.51730985 1200.35340555 473.85294924 1210.81712961 458 1221 C457.05753418 1221.60682617 456.11506836 1222.21365234 455.14404297 1222.83886719 C439.84229102 1232.6877646 424.46200174 1242.40477736 409 1252 C407.98921387 1252.62841797 406.97842773 1253.25683594 405.93701172 1253.90429688 C388.9722869 1264.44205752 371.84443748 1274.68760605 354.64941406 1284.84326172 C351.42760705 1286.74638881 348.20928645 1288.6553289 344.9921875 1290.56640625 C325.45586348 1302.1632073 305.78904898 1313.5185758 285.90454102 1324.50854492 C279.61288035 1327.98648704 273.34440253 1331.50002259 267.10009766 1335.06225586 C257.68428216 1340.4315452 248.18411388 1345.58161022 238.55151367 1350.55151367 C231.99880882 1353.93677146 225.51921514 1357.43553628 219.0625 1361 C210.39834606 1365.77128089 201.61431132 1370.2534665 192.75024414 1374.640625 C186.62023421 1377.67755624 180.53945942 1380.78699984 174.5 1384 C157.07313181 1393.24831448 139.33863745 1401.88424268 121.51220703 1410.33154297 C118.22337432 1411.8938871 114.93837492 1413.46397066 111.65429688 1415.03627014 C90.74884757 1425.04065763 69.72105498 1434.70579299 48.50048828 1444.02246094 C43.80813585 1446.08284414 39.12060837 1448.15407122 34.43359375 1450.2265625 C28.57521128 1452.81605414 22.71651327 1455.40481946 16.85546875 1457.98828125 C15.69684326 1458.49915283 14.53821777 1459.01002441 13.34448242 1459.53637695 C12.24080322 1460.01937256 11.13712402 1460.50236816 10 1461 C9.07146713 1461.42253555 9.07146713 1461.42253555 8.12417603 1461.85360718 C5.23299328 1463.14737089 3.20570087 1464 0 1464 C0 980.88 0 497.76 0 0 Z " fill="#D2042D" transform="translate(0,0)"/>
<path d="M0 0 C0 452.43 0 904.86 0 1371 C-610.5 1371 -1221 1371 -1850 1371 C-1846.12743282 1368.09557461 -1842.38042809 1366.27389417 -1837.9765625 1364.40234375 C-1836.31795831 1363.68539609 -1834.65943324 1362.96826538 -1833.00097656 1362.25097656 C-1832.12574341 1361.8746106 -1831.25051025 1361.49824463 -1830.34875488 1361.11047363 C-1809.68460697 1352.21154488 -1789.32892429 1342.74151294 -1769.05712891 1332.987854 C-1766.02088057 1331.529817 -1762.97902649 1330.08371363 -1759.9375 1328.63671875 C-1745.174766 1321.59006255 -1730.52117862 1314.32277085 -1715.88000488 1307.02761841 C-1713.71012802 1305.94669206 -1711.53965988 1304.86695162 -1709.36853027 1303.7885437 C-1696.34758663 1297.31652405 -1683.48480691 1290.6246841 -1670.74926758 1283.60742188 C-1665.40266806 1280.66190365 -1659.99610678 1277.84358443 -1654.5625 1275.0625 C-1644.91232168 1270.0713987 -1635.44729543 1264.79762921 -1626.01171875 1259.4140625 C-1620.69706465 1256.38440195 -1615.35018312 1253.4160124 -1609.99511719 1250.45849609 C-1596.20690876 1242.84261938 -1582.56471367 1235.00628096 -1569 1227 C-1567.91187012 1226.3591748 -1566.82374023 1225.71834961 -1565.70263672 1225.05810547 C-1541.91995574 1211.04716048 -1518.36800356 1196.69186639 -1495 1182 C-1494.17580566 1181.48228027 -1493.35161133 1180.96456055 -1492.50244141 1180.43115234 C-1474.24232914 1168.95477199 -1455.98495299 1157.45618751 -1438.09619141 1145.40673828 C-1435.61470846 1143.74143375 -1433.12600717 1142.08720794 -1430.63671875 1140.43359375 C-1408.24171433 1125.55299518 -1386.02276552 1110.42635345 -1364 1095 C-1363.22188965 1094.45504883 -1362.4437793 1093.91009766 -1361.64208984 1093.34863281 C-1351.44966692 1086.20162978 -1341.34189522 1078.94094301 -1331.26171875 1071.63671875 C-1329.02060267 1070.01490936 -1326.77648685 1068.39734868 -1324.53125 1066.78125 C-1315.24003578 1060.09125061 -1305.99624378 1053.34034143 -1296.7890625 1046.53515625 C-1293.60263558 1044.18011245 -1290.40979549 1041.83422272 -1287.2109375 1039.49609375 C-1278.46118945 1033.09283655 -1269.8149138 1026.58202925 -1261.27709961 1019.8984375 C-1257.21691799 1016.72024122 -1253.1368396 1013.57844597 -1249 1010.5 C-1241.63407604 1005.01126442 -1234.40325632 999.34947617 -1227.16601562 993.69287109 C-1225.21084212 992.16478576 -1223.25399478 990.63887216 -1221.296875 989.11328125 C-1214.45130707 983.76620717 -1207.68757452 978.32606525 -1200.95825195 972.83349609 C-1196.69669711 969.36073743 -1192.39854908 965.9416279 -1188.0625 962.5625 C-1182.0583302 957.88034924 -1176.18275355 953.05266227 -1170.32104492 948.19384766 C-1165.89428697 944.5331919 -1161.41617471 940.95479213 -1156.875 937.4375 C-1151.21451997 933.04402476 -1145.78922856 928.41846787 -1140.3984375 923.69946289 C-1135.92186814 919.7830488 -1131.3642541 915.98647291 -1126.7421875 912.2421875 C-1123.06850803 909.23835272 -1119.45667999 906.16422966 -1115.84204102 903.08984375 C-1112.36718064 900.14016289 -1108.85529028 897.24321103 -1105.3125 894.375 C-1100.91917078 890.80184368 -1096.7157897 887.0637577 -1092.53125 883.25 C-1089.02200514 880.13067124 -1085.36837877 877.20250867 -1081.71875 874.25 C-1078.21664712 871.35170796 -1074.8738314 868.29689027 -1071.515625 865.234375 C-1068.98669705 862.98818434 -1066.38950086 860.86468782 -1063.75 858.75 C-1058.68109226 854.65478075 -1053.94643238 850.2766543 -1049.20776367 845.81103516 C-1044.76000716 841.64298481 -1040.14837721 837.79614139 -1035.390625 833.984375 C-1032.63550944 831.69744901 -1030.15166193 829.24200143 -1027.6640625 826.671875 C-1025.27591618 824.27251672 -1022.72170625 822.08612601 -1020.16015625 819.875 C-1016.92182272 817.06414992 -1013.74585573 814.18528444 -1010.5625 811.3125 C-1008.08734669 809.07882507 -1005.60631688 806.85182284 -1003.125 804.625 C-997.8949468 799.91795212 -992.70921215 795.16325585 -987.52783203 790.40283203 C-986.02879298 789.02643728 -984.52835924 787.65158261 -983.02734375 786.27734375 C-977.2879709 781.02240197 -971.56122172 775.75412594 -965.84692383 770.47192383 C-962.3259692 767.21871445 -958.79100255 763.98140669 -955.25 760.75 C-950.21722304 756.13885196 -945.22568259 751.48518321 -940.25 746.8125 C-939.20440918 745.83265137 -939.20440918 745.83265137 -938.13769531 744.83300781 C-934.69460194 741.59235331 -931.30554454 738.31494057 -927.984375 734.94921875 C-925.45787555 732.40270194 -922.88163929 729.98811731 -920.15625 727.65625 C-914.99815333 723.21343626 -910.27660496 718.34513588 -905.5 713.5 C-903.70042547 711.67460661 -901.89838231 709.85164329 -900.09375 708.03125 C-899.30677734 707.23267578 -898.51980469 706.43410156 -897.70898438 705.61132812 C-895.62566681 703.60311213 -893.52588897 701.71405529 -891.33276367 699.83276367 C-887.03134602 696.07948561 -882.98724596 692.11468654 -878.96679688 688.06445312 C-878.20794693 687.30414291 -877.44909698 686.5438327 -876.66725159 685.76048279 C-875.03311376 684.12256322 -873.40013132 682.48349026 -871.76820374 680.84336853 C-869.1801881 678.24249653 -866.58898042 675.64484239 -863.99694824 673.04797363 C-858.49514734 667.53478895 -852.99728433 662.01768776 -847.5 656.5 C-841.12580278 650.10214465 -834.74997057 643.70593671 -828.36988831 637.31394958 C-825.82651294 634.76412767 -823.28618668 632.21129499 -820.74597168 629.6583252 C-819.17519825 628.08391666 -817.6042828 626.50964981 -816.03320312 624.93554688 C-815.33582535 624.23300278 -814.63844757 623.53045868 -813.91993713 622.80662537 C-809.99120733 618.87747855 -805.95927436 615.1336493 -801.7410965 611.51624298 C-799.27647075 609.36991078 -796.9816852 607.07629666 -794.6875 604.75 C-794.22947998 604.28819336 -793.77145996 603.82638672 -793.29956055 603.35058594 C-791.86383825 601.90287278 -790.43147568 600.45191143 -789 599 C-783.42032755 593.34067214 -777.84466715 587.74804777 -771.80078125 582.578125 C-768.89001717 580.02726017 -766.20343051 577.26687368 -763.5 574.5 C-759.45073088 570.39956998 -755.35369549 566.46850375 -750.95703125 562.73828125 C-747.63504984 559.78761912 -744.57071534 556.57770726 -741.44921875 553.41796875 C-738.6895396 550.69350082 -735.80819343 548.16452624 -732.86328125 545.64453125 C-730.41737142 543.48577226 -728.15654775 541.16915662 -725.87280273 538.84155273 C-724.07284697 537.07163143 -722.21916362 535.41800549 -720.3046875 533.7734375 C-715.96817728 530.00316586 -711.79114532 526.08157588 -707.625 522.125 C-702.26986382 517.06161483 -696.88874602 512.04090265 -691.38671875 507.13671875 C-688.569482 504.61457718 -685.78362105 502.05907181 -683 499.5 C-677.69894126 494.6303738 -672.35807084 489.80675809 -667 485 C-665.33307353 483.50028872 -663.66640851 482.00028679 -662 480.5 C-661.17757813 479.76007813 -660.35515625 479.02015625 -659.5078125 478.2578125 C-657.81407106 476.73291756 -656.12138831 475.20684598 -654.4296875 473.6796875 C-650.00178994 469.68510101 -645.55042448 465.72265908 -641.0546875 461.8046875 C-637.00030997 458.24361827 -633.0048707 454.6165196 -629 451 C-620.50740114 443.33092588 -611.94199483 435.77778429 -603.19775391 428.39672852 C-599.1382878 424.96861897 -595.09514258 421.52211553 -591.0625 418.0625 C-590.4837915 417.56621094 -589.90508301 417.06992188 -589.30883789 416.55859375 C-586.3333919 414.00573778 -583.36071069 411.44971505 -580.390625 408.890625 C-574.27255795 403.62457762 -568.11159473 398.43176514 -561.84375 393.34375 C-558.52313406 390.60697862 -555.25956291 387.80893615 -552 385 C-546.98823702 380.68185039 -541.91781618 376.45093314 -536.78125 372.28125 C-533.63615827 369.70156802 -530.53532832 367.07353745 -527.4375 364.4375 C-522.9404864 360.61608487 -518.39344067 356.87478492 -513.76953125 353.20703125 C-510.28631419 350.43126589 -506.83021803 347.62299213 -503.375 344.8125 C-502.69348877 344.25852539 -502.01197754 343.70455078 -501.30981445 343.13378906 C-497.83954595 340.31219538 -494.37158998 337.48780051 -490.90625 334.66015625 C-482.90680573 328.13790405 -474.85243514 321.69551267 -466.71777344 315.34277344 C-463.80728353 313.06766052 -460.90409715 310.78326302 -458 308.5 C-456.83465238 307.58461383 -455.6692878 306.66924924 -454.50390625 305.75390625 C-452.15612327 303.90936004 -449.80992813 302.06281944 -447.46484375 300.21484375 C-441.39610679 295.43491576 -435.30917992 290.68192735 -429.17773438 285.98242188 C-425.19986901 282.93097414 -421.24202025 279.85456273 -417.28881836 276.77124023 C-410.69177451 271.62635431 -404.07532443 266.51801458 -397.36328125 261.5234375 C-394.63626268 259.48692222 -391.93200896 257.42174451 -389.23046875 255.3515625 C-379.40685928 247.8250794 -369.51926184 240.42055225 -359.4609375 233.2109375 C-354.77581868 229.84964916 -350.13625411 226.42823268 -345.5 223 C-337.11820815 216.80751405 -328.68316592 210.69222892 -320.22509766 204.60449219 C-318.00501377 203.00361537 -315.78901451 201.39724569 -313.57421875 199.7890625 C-303.2965999 192.33148753 -292.92805578 185.01315448 -282.51025391 177.75292969 C-280.05899172 176.04119437 -277.6126307 174.3227078 -275.16796875 172.6015625 C-263.22843488 164.20051843 -251.19014655 155.95157872 -239.09765625 147.77246094 C-236.04433033 145.70723368 -232.99258837 143.63968224 -229.94140625 141.57128906 C-225.2294679 138.37742014 -220.51517488 135.18704953 -215.79959106 131.99856567 C-213.9180157 130.72577128 -212.03703661 129.4520949 -210.15670776 128.17745972 C-199.44088522 120.91539335 -188.65904425 113.81952495 -177.64321899 107.02120972 C-173.84597596 104.66134076 -170.11287145 102.20229939 -166.375 99.75 C-149.66048918 88.84292142 -132.79363742 78.18668539 -115.79736328 67.72460938 C-112.87088211 65.92039721 -109.94889693 64.10905486 -107.02734375 62.296875 C-81.94441919 46.76431994 -56.52589757 31.79146991 -31 17 C-30.43720337 16.67370605 -29.87440674 16.34741211 -29.29455566 16.01123047 C-25.69767227 13.92595183 -22.09965662 11.84264556 -18.50018311 9.76184082 C-16.79100406 8.77370585 -15.08226415 7.78481144 -13.37353516 6.79589844 C-12.3376123 6.1980957 -11.30168945 5.60029297 -10.234375 4.984375 C-9.31881836 4.45553711 -8.40326172 3.92669922 -7.45996094 3.38183594 C-1.43957597 0 -1.43957597 0 0 0 Z " fill="#4169E0" transform="translate(2000,629)"/>
</svg>
