<?xml version="1.0" encoding="UTF-8"?>
<svg version="1.1" xmlns="http://www.w3.org/2000/svg" width="2000" height="2000">
<path d="M0 0 C660 0 1320 0 2000 0 C2000 660 2000 1320 2000 2000 C1340 2000 680 2000 0 2000 C0 1340 0 680 0 0 Z " fill="#FEFEFE" transform="translate(0,0)"/>
<path d="M0 0 C660 0 1320 0 2000 0 C2000 224.4 2000 448.8 2000 680 C1995.94680572 678.37872229 1993.00477252 676.84301564 1989.421875 674.47265625 C1988.35187256 673.76834473 1987.28187012 673.0640332 1986.17944336 672.33837891 C1985.03627822 671.57977876 1983.8931308 670.8211519 1982.75 670.0625 C1981.57137921 669.28513745 1980.39242157 668.50828541 1979.21313477 667.73193359 C1976.87496908 666.1924384 1974.53792726 664.65126132 1972.20166016 663.10888672 C1968.12775704 660.42546632 1964.03688428 657.76927062 1959.9375 655.125 C1959.27202148 654.69517822 1958.60654297 654.26535645 1957.92089844 653.82250977 C1956.60740286 652.97422399 1955.29376601 652.12615692 1953.97998047 651.27832031 C1950.48479695 649.02175054 1946.99260747 646.76055391 1943.5 644.5 C1942.08334642 643.58331311 1940.66667978 642.6666464 1939.25 641.75 C1930.75 636.25 1930.75 636.25 1928.62695312 634.8762207 C1927.20382839 633.95540411 1925.78065093 633.03466902 1924.35742188 632.11401367 C1920.91413629 629.88649091 1917.47163872 627.65777601 1914.03125 625.42578125 C1905.66620167 620.00168199 1897.27688722 614.61687258 1888.875 609.25 C1878.64593368 602.71390006 1868.46525154 596.10679634 1858.3046875 589.46484375 C1851.56102494 585.0566435 1844.79584148 580.68199085 1838.02832031 576.31054688 C1835.2313875 574.50338085 1832.43573185 572.6942442 1829.64013672 570.88500977 C1828.21216422 569.96088382 1826.78410416 569.03689316 1825.35595703 568.11303711 C1821.91314284 565.8858659 1818.47114647 563.65745666 1815.03125 561.42578125 C1806.66620167 556.00168199 1798.27688722 550.61687258 1789.875 545.25 C1779.64593368 538.71390006 1769.46525154 532.10679634 1759.3046875 525.46484375 C1752.56102494 521.0566435 1745.79584148 516.68199085 1739.02832031 512.31054688 C1735.51767204 510.04223201 1732.00895887 507.77092702 1728.5 505.5 C1727.08334206 504.58331985 1725.66667541 503.66665316 1724.25 502.75 C1664.74999999 464.25 1664.74999999 464.25 1662.62695312 462.8762207 C1661.20382839 461.95540411 1659.78065093 461.03466902 1658.35742188 460.11401367 C1654.91413629 457.88649091 1651.47163872 455.65777601 1648.03125 453.42578125 C1639.66620167 448.00168199 1631.27688722 442.61687258 1622.875 437.25 C1612.64593368 430.71390006 1602.46525154 424.10679634 1592.3046875 417.46484375 C1585.56102494 413.0566435 1578.79584148 408.68199085 1572.02832031 404.31054688 C1568.51767204 402.04223201 1565.00895887 399.77092702 1561.5 397.5 C1560.08334206 396.58331985 1558.66667541 395.66665316 1557.25 394.75 C1548.74999999 389.25 1548.74999999 389.25 1546.62695312 387.8762207 C1545.20382839 386.95540411 1543.78065093 386.03466902 1542.35742188 385.11401367 C1538.91413629 382.88649091 1535.47163872 380.65777601 1532.03125 378.42578125 C1523.66620167 373.00168199 1515.27688722 367.61687258 1506.875 362.25 C1496.64593368 355.71390006 1486.46525154 349.10679634 1476.3046875 342.46484375 C1469.56102494 338.0566435 1462.79584148 333.68199085 1456.02832031 329.31054688 C1452.51767204 327.04223201 1449.00895887 324.77092702 1445.5 322.5 C1444.08334206 321.58331985 1442.66667541 320.66665316 1441.25 319.75 C1381.75000001 281.25 1381.75000001 281.25 1379.62695312 279.8762207 C1378.20382839 278.95540411 1376.78065093 278.03466902 1375.35742188 277.11401367 C1371.91413629 274.88649091 1368.47163872 272.65777601 1365.03125 270.42578125 C1356.66620167 265.00168199 1348.27688722 259.61687258 1339.875 254.25 C1329.64593368 247.71390006 1319.46525154 241.10679634 1309.3046875 234.46484375 C1302.56102494 230.0566435 1295.79584148 225.68199085 1289.02832031 221.31054688 C1285.51767204 219.04223201 1282.00895887 216.77092702 1278.5 214.5 C1277.08334206 213.58331985 1275.66667541 212.66665316 1274.25 211.75 C1231.75000001 184.25000001 1231.75000001 184.25000001 1229.62695312 182.8762207 C1228.20382839 181.95540411 1226.78065093 181.03466902 1225.35742188 180.11401367 C1221.91413629 177.88649091 1218.47163872 175.65777601 1215.03125 173.42578125 C1206.66620167 168.00168199 1198.27688722 162.61687258 1189.875 157.25 C1179.64593368 150.71390006 1169.46525154 144.10679634 1159.3046875 137.46484375 C1152.56102494 133.0566435 1145.79584148 128.68199085 1139.02832031 124.31054688 C1135.51767204 122.04223201 1132.00895887 119.77092702 1128.5 117.5 C1127.08334206 116.58331985 1125.66667541 115.66665316 1124.25 114.75 C1098.74999999 98.25 1098.74999999 98.25 1096.62695312 96.8762207 C1095.20382839 95.95540411 1093.78065093 95.03466902 1092.35742188 94.11401367 C1088.24664739 91.45468045 1084.13774345 88.79249579 1080.03051758 86.12768555 C1077.9534464 84.78234679 1075.87326197 83.44191258 1073.79296875 82.1015625 C1070.13545858 79.74273916 1066.49818954 77.35442604 1062.86328125 74.9609375 C1047.15184503 64.59334158 1047.15184503 64.59334158 1030 57 C1029.21496094 56.69191406 1028.42992187 56.38382813 1027.62109375 56.06640625 C1007.24130599 48.44677183 982.44547189 50.68079329 962.6730957 59.11791992 C951.762011 64.17917209 941.89775945 71.2469677 931.97607422 77.98779297 C928.00044588 80.6758265 923.97611003 83.28299193 919.9375 85.875 C918.60265925 86.73666116 917.26802008 87.59863469 915.93359375 88.4609375 C915.28890137 88.87698242 914.64420898 89.29302734 913.97998047 89.72167969 C911.20089355 91.51592126 908.4237921 93.3132246 905.64672852 95.1105957 C903.50427817 96.49723108 901.36151489 97.883382 899.21875 99.26953125 C896.4884807 101.03606558 893.75934714 102.80433196 891.03125 104.57421875 C882.66620167 109.99831801 874.27688722 115.38312742 865.875 120.75 C855.64593368 127.28609994 845.46525154 133.89320366 835.3046875 140.53515625 C828.56102494 144.9433565 821.79584148 149.31800915 815.02832031 153.68945312 C811.51767204 155.95776799 808.00895887 158.22907298 804.5 160.5 C803.08334206 161.41668015 801.66667541 162.33334684 800.25 163.25 C799.54875 163.70375 798.8475 164.1575 798.125 164.625 C784.66666667 173.33333333 771.20833333 182.04166667 757.75 190.75 C757.04939453 191.20334717 756.34878906 191.65669434 755.62695312 192.1237793 C754.20382839 193.04459589 752.78065093 193.96533098 751.35742188 194.88598633 C747.91413629 197.11350909 744.47163872 199.34222399 741.03125 201.57421875 C732.66620167 206.99831801 724.27688722 212.38312742 715.875 217.75 C705.64593368 224.28609994 695.46525154 230.89320366 685.3046875 237.53515625 C678.56102494 241.9433565 671.79584148 246.31800915 665.02832031 250.68945312 C661.51767204 252.95776799 658.00895887 255.22907298 654.5 257.5 C653.08334206 258.41668015 651.66667541 259.33334684 650.25 260.25 C649.54875 260.70375 648.8475 261.1575 648.125 261.625 C640.33333333 266.66666667 632.54166667 271.70833333 624.75 276.75 C624.04939453 277.20334717 623.34878906 277.65669434 622.62695312 278.1237793 C621.20382839 279.04459589 619.78065093 279.96533098 618.35742188 280.88598633 C614.91413629 283.11350909 611.47163872 285.34222399 608.03125 287.57421875 C599.66620167 292.99831801 591.27688722 298.38312742 582.875 303.75 C572.64593368 310.28609994 562.46525154 316.89320366 552.3046875 323.53515625 C545.56102494 327.9433565 538.79584148 332.31800915 532.02832031 336.68945312 C529.2313875 338.49661915 526.43573185 340.3057558 523.64013672 342.11499023 C522.21216422 343.03911618 520.78410416 343.96310684 519.35595703 344.88696289 C515.91314284 347.1141341 512.47114647 349.34254334 509.03125 351.57421875 C500.66620167 356.99831801 492.27688722 362.38312742 483.875 367.75 C473.64593368 374.28609994 463.46525154 380.89320366 453.3046875 387.53515625 C446.56102494 391.9433565 439.79584148 396.31800915 433.02832031 400.68945312 C429.51767204 402.95776799 426.00895887 405.22907298 422.5 407.5 C421.08334206 408.41668015 419.66667541 409.33334684 418.25 410.25 C417.198125 410.930625 417.198125 410.930625 416.125 411.625 C408.33333333 416.66666667 400.54166667 421.70833333 392.75 426.75 C392.04939453 427.20334717 391.34878906 427.65669434 390.62695312 428.1237793 C389.20382839 429.04459589 387.78065093 429.96533098 386.35742188 430.88598633 C382.91413629 433.11350909 379.47163872 435.34222399 376.03125 437.57421875 C367.66620167 442.99831801 359.27688722 448.38312742 350.875 453.75 C340.64593368 460.28609994 330.46525154 466.89320366 320.3046875 473.53515625 C313.56102494 477.9433565 306.79584148 482.31800915 300.02832031 486.68945312 C296.51767204 488.95776799 293.00895887 491.22907298 289.5 493.5 C288.08334206 494.41668015 286.66667541 495.33334684 285.25 496.25 C284.198125 496.930625 284.198125 496.930625 283.125 497.625 C258.33333333 513.66666667 233.54166667 529.70833333 208.75 545.75 C208.04939453 546.20334717 207.34878906 546.65669434 206.62695312 547.1237793 C205.20382839 548.04459589 203.78065093 548.96533098 202.35742188 549.88598633 C198.91413629 552.11350909 195.47163872 554.34222399 192.03125 556.57421875 C183.66620167 561.99831801 175.27688722 567.38312742 166.875 572.75 C156.64593368 579.28609994 146.46525154 585.89320366 136.3046875 592.53515625 C129.56102494 596.9433565 122.79584148 601.31800915 116.02832031 605.68945312 C112.51767204 607.95776799 109.00895887 610.22907298 105.5 612.5 C104.08334206 613.41668015 102.66667541 614.33334684 101.25 615.25 C100.54875 615.70375 99.8475 616.1575 99.125 616.625 C91.33333333 621.66666667 83.54166667 626.70833333 75.75 631.75 C75.04939453 632.20334717 74.34878906 632.65669434 73.62695312 633.1237793 C72.20382839 634.04459589 70.78065093 634.96533098 69.35742188 635.88598633 C65.91413629 638.11350909 62.47163872 640.34222399 59.03125 642.57421875 C52.70124711 646.67855831 46.36450131 650.7712808 40.00390625 654.828125 C37.8567698 656.19791504 35.7096344 657.56770673 33.5625 658.9375 C31.9681311 659.95396606 31.9681311 659.95396606 30.34155273 660.9909668 C22.92172039 665.7344957 15.57022438 670.56927285 8.30493164 675.54663086 C3.21246997 679 3.21246997 679 1 679 C0.67 679.66 0.34 680.32 0 681 C0 456.27 0 231.54 0 0 Z " fill="#FEFEFE" transform="translate(0,0)"/>
<path d="M0 0 C0.62455078 0.39848145 1.24910156 0.79696289 1.89257812 1.20751953 C6.21031256 3.96584121 10.5057224 6.75736903 14.79443359 9.56054688 C18.35575748 11.8848291 21.92828616 14.19172991 25.5 16.5 C26.91672347 17.41657888 28.33339007 18.33324566 29.75 19.25 C30.45125 19.70375 31.1525 20.1575 31.875 20.625 C106.25 68.75 106.25 68.75 108.37304688 70.1237793 C109.79617161 71.04459589 111.21934907 71.96533098 112.64257812 72.88598633 C116.08586371 75.11350909 119.52836128 77.34222399 122.96875 79.57421875 C131.33379833 84.99831801 139.72311278 90.38312742 148.125 95.75 C158.35406632 102.28609994 168.53474846 108.89320366 178.6953125 115.53515625 C185.43897506 119.9433565 192.20415852 124.31800915 198.97167969 128.68945312 C202.48232796 130.95776799 205.99104113 133.22907298 209.5 135.5 C210.91665794 136.41668015 212.33332459 137.33334684 213.75 138.25 C256.25 165.75 256.25 165.75 258.37304688 167.1237793 C259.79617161 168.04459589 261.21934907 168.96533098 262.64257812 169.88598633 C266.08586371 172.11350909 269.52836128 174.34222399 272.96875 176.57421875 C281.33379833 181.99831801 289.72311278 187.38312742 298.125 192.75 C308.35406632 199.28609994 318.53474846 205.89320366 328.6953125 212.53515625 C335.43897506 216.9433565 342.20415852 221.31800915 348.97167969 225.68945312 C352.48232796 227.95776799 355.99104113 230.22907298 359.5 232.5 C360.91665794 233.41668015 362.33332459 234.33334684 363.75 235.25 C389.24999999 251.75 389.24999999 251.75 391.37304688 253.1237793 C392.79617161 254.04459589 394.21934907 254.96533098 395.64257812 255.88598633 C399.08586371 258.11350909 402.52836128 260.34222399 405.96875 262.57421875 C414.33379833 267.99831801 422.72311278 273.38312742 431.125 278.75 C441.35406632 285.28609994 451.53474846 291.89320366 461.6953125 298.53515625 C468.43897506 302.9433565 475.20415852 307.31800915 481.97167969 311.68945312 C485.48232796 313.95776799 488.99104113 316.22907298 492.5 318.5 C493.91665794 319.41668015 495.33332459 320.33334684 496.75 321.25 C539.25 348.75 539.25 348.75 541.37304688 350.1237793 C542.79617161 351.04459589 544.21934907 351.96533098 545.64257812 352.88598633 C549.08586371 355.11350909 552.52836128 357.34222399 555.96875 359.57421875 C564.33379833 364.99831801 572.72311278 370.38312742 581.125 375.75 C591.35406632 382.28609994 601.53474846 388.89320366 611.6953125 395.53515625 C618.43897506 399.9433565 625.20415852 404.31800915 631.97167969 408.68945312 C635.48232796 410.95776799 638.99104113 413.22907298 642.5 415.5 C643.91665794 416.41668015 645.33332459 417.33334684 646.75 418.25 C672.25000001 434.75 672.25000001 434.75 674.37304688 436.1237793 C675.79617161 437.04459589 677.21934907 437.96533098 678.64257812 438.88598633 C682.08586371 441.11350909 685.52836128 443.34222399 688.96875 445.57421875 C697.33379833 450.99831801 705.72311278 456.38312742 714.125 461.75 C724.35406632 468.28609994 734.53474846 474.89320366 744.6953125 481.53515625 C751.43897506 485.9433565 758.20415852 490.31800915 764.97167969 494.68945312 C768.48232796 496.95776799 771.99104113 499.22907298 775.5 501.5 C776.91665794 502.41668015 778.33332459 503.33334684 779.75 504.25 C805.25 520.75 805.25 520.75 807.37304688 522.1237793 C808.79617161 523.04459589 810.21934907 523.96533098 811.64257812 524.88598633 C815.08586371 527.11350909 818.52836128 529.34222399 821.96875 531.57421875 C830.33379833 536.99831801 838.72311278 542.38312742 847.125 547.75 C857.35406632 554.28609994 867.53474846 560.89320366 877.6953125 567.53515625 C884.43897506 571.9433565 891.20415852 576.31800915 897.97167969 580.68945312 C901.48232797 582.957768 904.99103043 585.22908948 908.5 587.5 C909.91275604 588.41406927 911.32551645 589.32813177 912.73828125 590.2421875 C915.61104455 592.10099548 918.48339582 593.96043802 921.35546875 595.8203125 C930.22610353 601.56388182 939.10653913 607.29183573 948 613 C935.23584423 634.73827212 916.2738617 653.60552839 895 667 C893.94232422 667.67216553 893.94232422 667.67216553 892.86328125 668.35791016 C863.43414875 686.87172917 830.24212274 696.22002016 795.5625 696.25 C794.35321838 696.25151062 794.35321838 696.25151062 793.11950684 696.25305176 C781.45700923 696.24318354 770.37467234 695.76938208 759 693 C757.66053635 692.70529829 756.3206835 692.41236064 754.98046875 692.12109375 C729.0369681 686.26903528 707.17522545 674.36266376 685 660 C683.49252197 659.02474365 683.49252197 659.02474365 681.95458984 658.02978516 C676.15777161 654.27291953 670.37670817 650.49245161 664.60107422 646.703125 C660.78495953 644.20441878 656.95633297 641.72528684 653.125 639.25 C652.10708374 638.59209473 652.10708374 638.59209473 651.06860352 637.92089844 C649.72192559 637.05065258 648.3751653 636.18053416 647.02832031 635.31054688 C643.51767204 633.04223201 640.00895887 630.77092702 636.5 628.5 C635.08334206 627.58331985 633.66667541 626.66665316 632.25 625.75 C572.75000001 587.25 572.75000001 587.25 570.62695312 585.8762207 C569.20382839 584.95540411 567.78065093 584.03466902 566.35742188 583.11401367 C562.91413629 580.88649091 559.47163872 578.65777601 556.03125 576.42578125 C547.66620167 571.00168199 539.27688722 565.61687258 530.875 560.25 C520.64593368 553.71390006 510.46525154 547.10679634 500.3046875 540.46484375 C493.56102494 536.0566435 486.79584148 531.68199085 480.02832031 527.31054688 C476.51767204 525.04223201 473.00895887 522.77092702 469.5 520.5 C468.08334206 519.58331985 466.66667541 518.66665316 465.25 517.75 C422.74999999 490.24999999 422.74999999 490.24999999 420.62695312 488.8762207 C419.20382839 487.95540411 417.78065093 487.03466902 416.35742188 486.11401367 C412.91413629 483.88649091 409.47163872 481.65777601 406.03125 479.42578125 C397.66620167 474.00168199 389.27688722 468.61687258 380.875 463.25 C370.64593368 456.71390006 360.46525154 450.10679634 350.3046875 443.46484375 C343.56102494 439.0566435 336.79584148 434.68199085 330.02832031 430.31054688 C326.51767204 428.04223201 323.00895887 425.77092702 319.5 423.5 C318.08334206 422.58331985 316.66667541 421.66665316 315.25 420.75 C306.75 415.25 306.75 415.25 304.62695312 413.8762207 C303.20382839 412.95540411 301.78065093 412.03466902 300.35742188 411.11401367 C296.91413629 408.88649091 293.47163872 406.65777601 290.03125 404.42578125 C281.66620167 399.00168199 273.27688722 393.61687258 264.875 388.25 C254.64593368 381.71390006 244.46525154 375.10679634 234.3046875 368.46484375 C227.56102494 364.0566435 220.79584148 359.68199085 214.02832031 355.31054688 C210.51767204 353.04223201 207.00895887 350.77092702 203.5 348.5 C202.08334206 347.58331985 200.66667541 346.66665316 199.25 345.75 C156.75000001 318.25000001 156.75000001 318.25000001 154.62695312 316.8762207 C153.20382839 315.95540411 151.78065093 315.03466902 150.35742188 314.11401367 C146.91413629 311.88649091 143.47163872 309.65777601 140.03125 307.42578125 C131.66620167 302.00168199 123.27688722 296.61687258 114.875 291.25 C104.64593368 284.71390006 94.46525154 278.10679634 84.3046875 271.46484375 C77.56102494 267.0566435 70.79584148 262.68199085 64.02832031 258.31054688 C60.51767204 256.04223201 57.00895887 253.77092702 53.5 251.5 C52.08334206 250.58331985 50.66667541 249.66665316 49.25 248.75 C23.74999999 232.25 23.74999999 232.25 21.62695312 230.8762207 C20.20382839 229.95540411 18.78065093 229.03466902 17.35742188 228.11401367 C13.91413629 225.88649091 10.47163872 223.65777601 7.03125 221.42578125 C-2.46090755 215.27077373 -11.97902482 209.15718889 -21.5222168 203.08154297 C-26.68572664 199.78853852 -31.82304947 196.46669886 -36.90625 193.05078125 C-38.27849731 192.13498291 -38.27849731 192.13498291 -39.6784668 191.20068359 C-41.3953778 190.05140829 -43.10557679 188.89202208 -44.80786133 187.72119141 C-45.94904419 186.96008057 -45.94904419 186.96008057 -47.11328125 186.18359375 C-47.77110596 185.73556396 -48.42893066 185.28753418 -49.10668945 184.82592773 C-50.95968754 183.83353853 -50.95968754 183.83353853 -52.96826172 184.19897461 C-55.3116491 185.12286959 -57.27543533 186.26806312 -59.39453125 187.6328125 C-60.25602783 188.18412842 -61.11752441 188.73544434 -62.00512695 189.3034668 C-62.93156006 189.90457275 -63.85799316 190.50567871 -64.8125 191.125 C-66.26499146 192.05856323 -66.26499146 192.05856323 -67.74682617 193.01098633 C-70.83597195 195.00007907 -73.91895495 196.99838515 -77 199 C-78.48886719 199.96703857 -78.48886719 199.96703857 -80.0078125 200.95361328 C-84.87301579 204.11711865 -89.73311291 207.28834869 -94.58984375 210.46484375 C-101.36805296 214.8974374 -108.16865907 219.29507847 -114.97167969 223.68945312 C-117.7686125 225.49661915 -120.56426815 227.3057558 -123.35986328 229.11499023 C-124.78783578 230.03911618 -126.21589584 230.96310684 -127.64404297 231.88696289 C-131.08685716 234.1141341 -134.52885353 236.34254334 -137.96875 238.57421875 C-146.33379833 243.99831801 -154.72311278 249.38312742 -163.125 254.75 C-173.35406632 261.28609994 -183.53474846 267.89320366 -193.6953125 274.53515625 C-200.43897506 278.9433565 -207.20415852 283.31800915 -213.97167969 287.68945312 C-217.48232796 289.95776799 -220.99104113 292.22907298 -224.5 294.5 C-225.91665794 295.41668015 -227.33332459 296.33334684 -228.75 297.25 C-229.45125 297.70375 -230.1525 298.1575 -230.875 298.625 C-238.66666667 303.66666667 -246.45833333 308.70833333 -254.25 313.75 C-254.95060547 314.20334717 -255.65121094 314.65669434 -256.37304688 315.1237793 C-257.79617161 316.04459589 -259.21934907 316.96533098 -260.64257812 317.88598633 C-264.08586371 320.11350909 -267.52836128 322.34222399 -270.96875 324.57421875 C-279.33379833 329.99831801 -287.72311278 335.38312742 -296.125 340.75 C-306.35406632 347.28609994 -316.53474846 353.89320366 -326.6953125 360.53515625 C-333.43897506 364.9433565 -340.20415852 369.31800915 -346.97167969 373.68945312 C-350.48232796 375.95776799 -353.99104113 378.22907298 -357.5 380.5 C-358.91665794 381.41668015 -360.33332459 382.33334684 -361.75 383.25 C-362.45125 383.70375 -363.1525 384.1575 -363.875 384.625 C-371.66666667 389.66666667 -379.45833333 394.70833333 -387.25 399.75 C-387.95084717 400.2035083 -388.65169434 400.6570166 -389.3737793 401.12426758 C-390.79444515 402.04348357 -392.21518115 402.96259117 -393.63598633 403.8815918 C-397.11704071 406.13338267 -400.59696844 408.38686981 -404.07421875 410.64453125 C-415.67024737 418.16862981 -427.32926448 425.59241302 -439 433 C-436.84887734 435.15112266 -432.36009261 434.88781849 -429.375 435.3125 C-403.99236602 439.15004725 -381.86959884 448.51344607 -363 466 C-362.14019531 466.76699219 -361.28039062 467.53398438 -360.39453125 468.32421875 C-348.2991705 479.65039917 -339.68638356 493.96716523 -333 509 C-332.46890625 510.175625 -331.9378125 511.35125 -331.390625 512.5625 C-328.27887952 519.87670588 -325.93121858 527.28503172 -323.8125 534.9375 C-323.57450684 535.79424316 -323.33651367 536.65098633 -323.09130859 537.53369141 C-319.46284389 551.17031103 -317.47960939 565.00690936 -315.875 579 C-315.70493657 580.44927863 -315.53436473 581.89849768 -315.36328125 583.34765625 C-315.04050988 586.08433933 -314.72146006 588.82141512 -314.4050293 591.55883789 C-314.10783284 594.08384337 -313.79082738 596.60202284 -313.44921875 599.12109375 C-310.91645064 620.99099574 -310.78896376 643.07706097 -310.75 665.0625 C-310.74491425 666.21170929 -310.73982849 667.36091858 -310.73458862 668.54495239 C-310.66038745 689.39845691 -311.61455367 710.18117767 -314.8125 730.8125 C-314.98499268 731.93229248 -315.15748535 733.05208496 -315.33520508 734.20581055 C-320.07327178 763.78968223 -329.66429476 791.40170147 -351 813 C-351.56976562 813.64195312 -352.13953125 814.28390625 -352.7265625 814.9453125 C-363.23389921 826.53032477 -378.72990524 833.39966092 -393 839 C-391.42025391 839.51046875 -391.42025391 839.51046875 -389.80859375 840.03125 C-365.18754291 848.20185094 -348.08043955 860.30294339 -335.83789062 883.79833984 C-332.29439753 890.97475706 -329.77952045 898.3455637 -327.6875 906.0625 C-327.45716064 906.89185059 -327.22682129 907.72120117 -326.98950195 908.57568359 C-322.23537822 927.49098984 -321.55074055 947.01850866 -321.63671875 966.4140625 C-321.63655916 968.82126903 -321.63528108 971.22847569 -321.63301086 973.63568115 C-321.6316129 979.55145971 -321.64545028 985.46708743 -321.66685086 991.38281679 C-321.68420627 996.2724032 -321.69436586 1001.1619619 -321.70043945 1006.05157471 C-321.79208453 1075.88096235 -322.56495033 1145.70859441 -323.2878418 1215.53369141 C-323.29850666 1216.563961 -323.30917152 1217.59423059 -323.32015955 1218.65572047 C-323.53932485 1239.77056161 -323.77106962 1260.8852609 -324 1282 C-378.78 1282 -433.56 1282 -490 1282 C-490.04898438 1257.5696875 -490.09796875 1233.139375 -490.1484375 1207.96875 C-490.18381852 1192.50129865 -490.21968289 1177.0338507 -490.2578125 1161.56640625 C-490.2778192 1153.44026729 -490.29770343 1145.31412804 -490.31738281 1137.18798828 C-490.31985425 1136.16957143 -490.32232569 1135.15115458 -490.32487202 1134.10187662 C-490.36454323 1117.68086018 -490.39730668 1101.2598369 -490.42749982 1084.83880061 C-490.45866263 1067.97439781 -490.49729255 1051.11002391 -490.54279006 1034.24565363 C-490.57060934 1023.84747716 -490.59267068 1013.44932172 -490.60726251 1003.05111814 C-490.61784077 995.91142928 -490.63570113 988.77178126 -490.65916704 981.63212323 C-490.67247489 977.51883841 -490.68268806 973.40561058 -490.68421364 969.29230309 C-490.68568591 965.51530977 -490.69644522 961.73845327 -490.71413441 957.96150213 C-490.72116882 955.97112482 -490.71867227 953.98072056 -490.71566427 951.99033308 C-490.80877103 936.77876922 -491.09015372 917.95671181 -502.34765625 906.35546875 C-515.95915548 895.1895344 -537.92151293 895.94579336 -554 895 C-554 1023.04 -554 1151.08 -554 1283 C-611.09 1283 -668.18 1283 -727 1283 C-727.33 1064.21 -727.66 845.42 -728 620 C-734.6 624.29 -741.2 628.58 -748 633 C-752.97363949 636.22034211 -757.94751462 639.44027037 -762.92333984 642.65722656 C-765.7389741 644.47782242 -768.55401268 646.29933785 -771.36889648 648.12109375 C-772.7861499 649.03811142 -774.20362934 649.95477988 -775.62133789 650.87109375 C-779.19267583 653.17990391 -782.76003419 655.49447832 -786.3203125 657.8203125 C-790.53275141 660.56913164 -794.75893635 663.29555362 -799 666 C-799.62583984 666.39960937 -800.25167969 666.79921875 -800.89648438 667.2109375 C-841.53197023 692.94818465 -891.4880976 703.38719441 -938.92578125 692.7421875 C-982.44009463 682.18937905 -1020.3658168 657.80246266 -1047.3125 621.875 C-1047.79928223 621.23522217 -1048.28606445 620.59544434 -1048.78759766 619.9362793 C-1050.11328125 618.1171875 -1050.11328125 618.1171875 -1052 615 C-1050.73875354 611.21626063 -1049.47636212 610.75167048 -1046.13671875 608.6640625 C-1045.11449219 608.01848389 -1044.09226562 607.37290527 -1043.0390625 606.70776367 C-1041.38003906 605.67679565 -1041.38003906 605.67679565 -1039.6875 604.625 C-1038.54496702 603.90631715 -1037.40304493 603.18666226 -1036.26171875 602.46606445 C-1034.52260059 601.36827199 -1032.78309942 600.27114388 -1031.04159546 599.17713928 C-1025.82588152 595.90053033 -1020.65689503 592.55564517 -1015.5 589.1875 C-1013.87900757 588.13135489 -1012.25791567 587.07536244 -1010.63671875 586.01953125 C-1009.475354 585.262771 -1009.475354 585.262771 -1008.29052734 584.49072266 C-1004.63558544 582.11201073 -1000.97439132 579.74299493 -997.3125 577.375 C-996.62220703 576.92858154 -995.93191406 576.48216309 -995.22070312 576.0222168 C-993.83939311 575.1290108 -992.4580456 574.23586278 -991.07666016 573.34277344 C-987.55051684 571.06276071 -984.02531191 568.78129794 -980.5 566.5 C-979.0833377 565.58332659 -977.66667103 564.66665992 -976.25 563.75 C-975.54875 563.29625 -974.8475 562.8425 -974.125 562.375 C-955 550 -935.875 537.625 -916.75 525.25 C-916.04939453 524.79665283 -915.34878906 524.34330566 -914.62695312 523.8762207 C-913.20382839 522.95540411 -911.78065093 522.03466902 -910.35742188 521.11401367 C-906.91413629 518.88649091 -903.47163872 516.65777601 -900.03125 514.42578125 C-891.66620167 509.00168199 -883.27688722 503.61687258 -874.875 498.25 C-864.64593368 491.71390006 -854.46525154 485.10679634 -844.3046875 478.46484375 C-837.56102494 474.0566435 -830.79584148 469.68199085 -824.02832031 465.31054688 C-820.51767204 463.04223201 -817.00895887 460.77092702 -813.5 458.5 C-812.08334206 457.58331985 -810.66667541 456.66665316 -809.25 455.75 C-808.54875 455.29625 -807.8475 454.8425 -807.125 454.375 C-793.66666667 445.66666667 -780.20833333 436.95833333 -766.75 428.25 C-766.04939453 427.79665283 -765.34878906 427.34330566 -764.62695312 426.8762207 C-763.20382839 425.95540411 -761.78065093 425.03466902 -760.35742188 424.11401367 C-756.91413629 421.88649091 -753.47163872 419.65777601 -750.03125 417.42578125 C-741.66620167 412.00168199 -733.27688722 406.61687258 -724.875 401.25 C-714.64593368 394.71390006 -704.46525154 388.10679634 -694.3046875 381.46484375 C-687.56102494 377.0566435 -680.79584148 372.68199085 -674.02832031 368.31054688 C-670.51767204 366.04223201 -667.00895887 363.77092702 -663.5 361.5 C-662.08334206 360.58331985 -660.66667541 359.66665316 -659.25 358.75 C-658.198125 358.069375 -658.198125 358.069375 -657.125 357.375 C-649.33333333 352.33333333 -641.54166667 347.29166667 -633.75 342.25 C-633.04939453 341.79665283 -632.34878906 341.34330566 -631.62695312 340.8762207 C-630.20382839 339.95540411 -628.78065093 339.03466902 -627.35742188 338.11401367 C-623.91413629 335.88649091 -620.47163872 333.65777601 -617.03125 331.42578125 C-608.66620167 326.00168199 -600.27688722 320.61687258 -591.875 315.25 C-581.64593368 308.71390006 -571.46525154 302.10679634 -561.3046875 295.46484375 C-554.56102494 291.0566435 -547.79584148 286.68199085 -541.02832031 282.31054688 C-537.51767204 280.04223201 -534.00895887 277.77092702 -530.5 275.5 C-529.08334206 274.58331985 -527.66667541 273.66665316 -526.25 272.75 C-525.54875 272.29625 -524.8475 271.8425 -524.125 271.375 C-516.33333333 266.33333333 -508.54166667 261.29166667 -500.75 256.25 C-500.04939453 255.79665283 -499.34878906 255.34330566 -498.62695312 254.8762207 C-497.20382839 253.95540411 -495.78065093 253.03466902 -494.35742188 252.11401367 C-490.91413629 249.88649091 -487.47163872 247.65777601 -484.03125 245.42578125 C-475.66620167 240.00168199 -467.27688722 234.61687258 -458.875 229.25 C-448.64593368 222.71390006 -438.46525154 216.10679634 -428.3046875 209.46484375 C-421.56102494 205.0566435 -414.79584148 200.68199085 -408.02832031 196.31054688 C-404.51767204 194.04223201 -401.00895887 191.77092702 -397.5 189.5 C-396.08334206 188.58331985 -394.66667541 187.66665316 -393.25 186.75 C-392.54875 186.29625 -391.8475 185.8425 -391.125 185.375 C-383.33333333 180.33333333 -375.54166667 175.29166667 -367.75 170.25 C-367.04939453 169.79665283 -366.34878906 169.34330566 -365.62695312 168.8762207 C-364.20382839 167.95540411 -362.78065093 167.03466902 -361.35742188 166.11401367 C-357.91413629 163.88649091 -354.47163872 161.65777601 -351.03125 159.42578125 C-342.66620167 154.00168199 -334.27688722 148.61687258 -325.875 143.25 C-315.64593368 136.71390006 -305.46525154 130.10679634 -295.3046875 123.46484375 C-288.56102494 119.0566435 -281.79584148 114.68199085 -275.02832031 110.31054688 C-271.51767204 108.04223201 -268.00895887 105.77092702 -264.5 103.5 C-263.08334206 102.58331985 -261.66667541 101.66665316 -260.25 100.75 C-259.54875 100.29625 -258.8475 99.8425 -258.125 99.375 C-244.66666667 90.66666667 -231.20833333 81.95833333 -217.75 73.25 C-217.04939453 72.79665283 -216.34878906 72.34330566 -215.62695312 71.8762207 C-214.20382839 70.95540411 -212.78065093 70.03466902 -211.35742188 69.11401367 C-207.91413629 66.88649091 -204.47163872 64.65777601 -201.03125 62.42578125 C-192.66620167 57.00168199 -184.27688722 51.61687258 -175.875 46.25 C-165.64593368 39.71390006 -155.46525154 33.10679634 -145.3046875 26.46484375 C-139.23433539 22.49677337 -133.14685464 18.55555708 -127.0546875 14.62109375 C-124.2440627 12.8058701 -121.43728731 10.9848666 -118.6328125 9.16015625 C-115.07711836 6.84721749 -111.51325062 4.54736163 -107.94433594 2.25488281 C-106.14601611 1.09423943 -104.35774926 -0.08051544 -102.5703125 -1.2578125 C-70.55046109 -21.8475947 -31.73914195 -20.3646465 0 0 Z " fill="#000000" transform="translate(1052,67)"/>
<path d="M0 0 C300.69432314 0 300.69432314 0 324 9 C325.12535156 9.40863281 326.25070312 9.81726563 327.41015625 10.23828125 C356.70883059 21.14055389 379.20297958 44.01154077 392.265625 72.125 C392.84666991 73.41535581 393.42488778 74.70698908 394 76 C394.53109375 77.175625 395.0621875 78.35125 395.609375 79.5625 C398.72112048 86.87670588 401.06878142 94.28503172 403.1875 101.9375 C403.42549316 102.79424316 403.66348633 103.65098633 403.90869141 104.53369141 C407.53715611 118.17031103 409.52039061 132.00690936 411.125 146 C411.29506343 147.44927863 411.46563527 148.89849768 411.63671875 150.34765625 C411.95949012 153.08433933 412.27853994 155.82141512 412.5949707 158.55883789 C412.89216716 161.08384337 413.20917262 163.60202284 413.55078125 166.12109375 C416.08354936 187.99099574 416.21103624 210.07706097 416.25 232.0625 C416.25508575 233.21170929 416.26017151 234.36091858 416.26541138 235.54495239 C416.33961255 256.39845691 415.38544633 277.18117767 412.1875 297.8125 C412.01500732 298.93229248 411.84251465 300.05208496 411.66479492 301.20581055 C406.92672822 330.78968223 397.33570524 358.40170147 376 380 C375.14535156 380.96292969 375.14535156 380.96292969 374.2734375 381.9453125 C363.76610079 393.53032477 348.27009476 400.39966092 334 406 C335.05316406 406.3403125 336.10632813 406.680625 337.19140625 407.03125 C361.81245709 415.20185094 378.91956045 427.30294339 391.16210938 450.79833984 C394.70560247 457.97475706 397.22047955 465.3455637 399.3125 473.0625 C399.65800903 474.30652588 399.65800903 474.30652588 400.01049805 475.57568359 C404.76462178 494.49098984 405.44925945 514.01850866 405.36328125 533.4140625 C405.36344084 535.82126903 405.36471892 538.22847569 405.36698914 540.63568115 C405.3683871 546.55145971 405.35454972 552.46708743 405.33314914 558.38281679 C405.31579373 563.2724032 405.30563414 568.1619619 405.29956055 573.05157471 C405.20791547 642.88096235 404.43504967 712.70859441 403.7121582 782.53369141 C403.70149334 783.563961 403.69082848 784.59423059 403.67984045 785.65572047 C403.46067515 806.77056161 403.22893038 827.8852609 403 849 C348.22 849 293.44 849 237 849 C236.95101562 824.5696875 236.90203125 800.139375 236.8515625 774.96875 C236.81618148 759.50129865 236.78031711 744.0338507 236.7421875 728.56640625 C236.7221808 720.44026729 236.70229657 712.31412804 236.68261719 704.18798828 C236.68014575 703.16957143 236.67767431 702.15115458 236.67512798 701.10187662 C236.63545677 684.68086018 236.60269332 668.2598369 236.57250018 651.83880061 C236.54133737 634.97439781 236.50270745 618.11002391 236.45720994 601.24565363 C236.42939066 590.84747716 236.40732932 580.44932172 236.39273749 570.05111814 C236.38215923 562.91142928 236.36429887 555.77178126 236.34083296 548.63212323 C236.32752511 544.51883841 236.31731194 540.40561058 236.31578636 536.29230309 C236.31431409 532.51530977 236.30355478 528.73845327 236.28586559 524.96150213 C236.27883118 522.97112482 236.28132773 520.98072056 236.28433573 518.99033308 C236.19122897 503.77876922 235.90984628 484.95671181 224.65234375 473.35546875 C211.04084452 462.1895344 189.07848707 462.94579336 173 462 C173 590.04 173 718.08 173 850 C115.91 850 58.82 850 0 850 C0 569.5 0 289 0 0 Z " fill="#D2042D" transform="translate(325,500)"/>
<path d="M0 0 C1.13406281 -0.00776459 2.26812561 -0.01552917 3.43655396 -0.02352905 C20.13900985 -0.11350465 36.39469771 1.10016516 52.9375 3.375 C53.94413696 3.51054794 54.95077393 3.64609589 55.98791504 3.78575134 C99.93485664 9.76619569 144.02872349 30.15918624 171.42651367 65.99316406 C176.89925006 73.42382322 181.69021175 81.17760352 185.9375 89.375 C186.2684668 90.01099121 186.59943359 90.64698242 186.94042969 91.30224609 C199.73118522 116.25339934 206.86799001 144.45431249 208.9375 172.375 C209.01845067 173.42996642 209.09940134 174.48493284 209.18280506 175.57186794 C209.80552468 184.20615309 210.08601333 192.77936386 210.08276367 201.43969727 C210.08780159 203.41964439 210.08780159 203.41964439 210.09294128 205.43959045 C210.10167785 209.02486302 210.1041158 212.61011161 210.10475707 216.1953938 C210.10547681 218.4668274 210.10762879 220.73825527 210.11025429 223.00968742 C210.11949405 231.02770229 210.12359341 239.04570069 210.12280273 247.0637207 C210.12221159 254.37533422 210.13257316 261.68687164 210.1485464 268.99846607 C210.16197165 275.38682422 210.16697219 281.77515877 210.16634732 288.16353077 C210.16610098 291.927662 210.16843331 295.6917266 210.17952538 299.45584297 C210.24884063 328.15713198 209.0014289 356.64891964 207.9375 385.375 C124.7775 385.375 41.6175 385.375 -44.0625 385.375 C-43.959375 410.785 -43.85625 436.195 -43.75 462.375 C-43.71265747 474.34201172 -43.71265747 474.34201172 -43.67456055 486.55078125 C-43.63793101 493.79798404 -43.63793101 493.79798404 -43.5974884 501.04516602 C-43.5797887 504.23495927 -43.56999809 507.42466345 -43.56538391 510.61450195 C-44.93723156 555.98647424 -44.93723156 555.98647424 -28.28515625 596.52734375 C-20.32688059 604.22522594 -10.95685452 605.92856355 -0.27636719 605.78198242 C9.58168372 605.40682759 17.46016639 602.96153687 24.5 595.75 C39.0624414 577.02017184 37.2277479 549.41849817 37.3515625 526.984375 C37.3685611 525.05874906 37.38638439 523.13313023 37.4050293 521.20751953 C37.46743933 514.18009412 37.51407697 507.15253571 37.5625 500.125 C37.68625 484.3675 37.81 468.61 37.9375 452.375 C94.3675 452.375 150.7975 452.375 208.9375 452.375 C208.9375 624.97799625 208.9375 624.97799625 158.9375 682.375 C158.08414062 683.36113281 157.23078125 684.34726563 156.3515625 685.36328125 C150.72970218 691.7431564 144.85261509 697.39219366 137.9375 702.375 C136.87402344 703.15359375 135.81054688 703.9321875 134.71484375 704.734375 C109.44925838 722.70124821 79.24358071 731.59686969 48.9375 736.375 C48.15890625 736.49955566 47.3803125 736.62411133 46.578125 736.75244141 C29.75075986 739.38171721 12.98994186 739.56141505 -4.00073242 739.56030273 C-7.72391273 739.56248471 -11.4467939 739.5806803 -15.16992188 739.59960938 C-28.6067428 739.63169099 -41.74768308 739.22425698 -55.0625 737.375 C-56.09640869 737.23425049 -57.13031738 737.09350098 -58.19555664 736.94848633 C-95.43488568 731.44518714 -129.55010189 717.34333495 -157.0625 691.375 C-157.73796875 690.75238281 -158.4134375 690.12976562 -159.109375 689.48828125 C-178.38007634 671.10403217 -189.99107927 645.98096686 -199.0625 621.375 C-199.55073242 620.08867676 -199.55073242 620.08867676 -200.04882812 618.77636719 C-213.03148716 584.10256721 -217.22858344 543.97655267 -217.20294189 507.15522766 C-217.20553393 505.78057864 -217.20854937 504.40593036 -217.2119453 503.03128308 C-217.21992052 499.29550946 -217.2217995 495.55975514 -217.22254276 491.82397401 C-217.22441011 487.77798929 -217.23196571 483.7320142 -217.23867798 479.68603516 C-217.25219503 470.85682185 -217.25827586 462.02761312 -217.26268864 453.1983912 C-217.26546279 447.67128864 -217.26970224 442.1441878 -217.27419281 436.61708641 C-217.28637768 421.27417899 -217.29667797 405.93127294 -217.3000679 390.58836079 C-217.30028747 389.60849489 -217.30050703 388.62862899 -217.30073325 387.61907018 C-217.30095153 386.63703341 -217.30116981 385.65499664 -217.3013947 384.64320117 C-217.30183815 382.6536543 -217.30228471 380.66410742 -217.30273438 378.67456055 C-217.3029558 377.687704 -217.30317723 376.70084746 -217.30340537 375.68408617 C-217.30734691 359.72117518 -217.32478474 343.75831001 -217.3480939 327.79541669 C-217.37190489 311.35429088 -217.38427419 294.91318796 -217.38543582 278.47204465 C-217.38634722 269.26214833 -217.391963 260.05231172 -217.41025543 250.84243202 C-217.42578882 242.99475691 -217.43070005 235.14715996 -217.42251733 227.29947237 C-217.41865678 223.30822106 -217.41930972 219.31712649 -217.43357468 215.32589531 C-217.62887382 157.34414426 -206.95022187 101.7496316 -166.0625 58.375 C-165.41410156 57.66214844 -164.76570312 56.94929687 -164.09765625 56.21484375 C-136.07110733 26.57448203 -93.66386255 9.60805028 -54.0625 3.375 C-53.27262695 3.23964844 -52.48275391 3.10429688 -51.66894531 2.96484375 C-34.52196237 0.13778826 -17.33520102 0.05393061 0 0 Z " fill="#D2042D" transform="translate(1005.0625,617.625)"/>
<path d="M0 0 C1.6094751 -0.00537781 1.6094751 -0.00537781 3.25146484 -0.01086426 C22.87185634 -0.04606652 42.82186633 0.36048335 62.0625 4.5625 C63.59765259 4.88456421 63.59765259 4.88456421 65.16381836 5.21313477 C75.37885666 7.41826833 85.42386986 10.12579642 95.375 13.3125 C96.07351074 13.53486328 96.77202148 13.75722656 97.49169922 13.98632812 C120.71336931 21.56660533 140.90156045 34.44831567 158.375 51.3125 C159.22707031 52.10140625 160.07914063 52.8903125 160.95703125 53.703125 C177.83923009 69.76115351 189.18140359 90.73634741 197.375 112.3125 C197.62088867 112.95896484 197.86677734 113.60542969 198.12011719 114.27148438 C199.71976175 118.56610786 201.10860929 122.90992995 202.375 127.3125 C202.5822168 128.02937988 202.78943359 128.74625977 203.00292969 129.48486328 C211.65527041 160.31782631 211.375 191.21563658 211.375 223.3125 C152.305 223.3125 93.235 223.3125 32.375 223.3125 C32.045 209.1225 31.715 194.9325 31.375 180.3125 C27.64230495 156.88426668 27.64230495 156.88426668 13.4140625 138.71875 C5.47600637 133.24422853 -3.30857675 133.51630273 -12.625 134.3125 C-20.86310179 135.92960887 -27.20216056 139.92051857 -32.625 146.3125 C-40.93873723 159.73779337 -40.44056729 177.00249874 -37.4375 192.1875 C-32.6298697 210.50121729 -22.01461239 224.08661835 -6.8125 234.9375 C-5.1300482 236.15733125 -3.44776121 237.37738984 -1.765625 238.59765625 C-0.91291016 239.2127002 -0.06019531 239.82774414 0.81835938 240.46142578 C4.88038924 243.40244091 8.90652502 246.39165363 12.9375 249.375 C19.05720982 253.89086752 25.20315935 258.36818089 31.375 262.8125 C41.56841866 270.15274221 51.66901291 277.61704358 61.77050781 285.08300781 C64.15893749 286.84777572 66.54802172 288.61165217 68.9375 290.375 C69.72012207 290.95282227 70.50274414 291.53064453 71.30908203 292.12597656 C75.98217814 295.56971715 80.6799178 298.97628606 85.39794922 302.3581543 C93.90664004 308.45976933 102.21553925 314.75207796 110.375 321.3125 C111.32761719 322.07046875 112.28023437 322.8284375 113.26171875 323.609375 C119.7010969 328.79027269 125.80884554 334.28196795 131.85449219 339.90966797 C133.36140572 341.29995781 134.88425246 342.67013283 136.4140625 344.03515625 C143.53478907 350.40959577 150.06946632 357.13354158 156.375 364.3125 C156.81666504 364.80943359 157.25833008 365.30636719 157.71337891 365.81835938 C184.65630109 396.23366255 203.15428703 431.45131357 211.375 471.3125 C211.69259277 472.79967529 211.69259277 472.79967529 212.01660156 474.31689453 C215.66073103 492.24012086 215.74183391 510.15298535 215.75 528.375 C215.75299103 530.14630783 215.75299103 530.14630783 215.75604248 531.95339966 C215.74470909 591.29863121 199.50581394 645.04813926 157.02734375 687.66796875 C137.9721544 705.61187776 114.26141636 718.51696662 89.48046875 726.62011719 C87.49632115 727.27260357 85.52981893 727.96276875 83.5625 728.6640625 C75.37684098 731.44377588 67.103674 733.32494036 58.625 735 C57.61493896 735.20254395 56.60487793 735.40508789 55.56420898 735.61376953 C37.59097967 738.99600322 19.675223 739.66154063 1.42358398 739.62817383 C-2.15867938 739.62502533 -5.74010413 739.64853419 -9.32226562 739.67382812 C-30.17485608 739.73187702 -51.1567237 738.42668743 -71.5 733.5625 C-72.60746582 733.30500977 -73.71493164 733.04751953 -74.85595703 732.78222656 C-103.65258941 725.88031467 -131.2574848 714.06606002 -153.625 694.3125 C-154.59953125 693.47074219 -155.5740625 692.62898438 -156.578125 691.76171875 C-177.98569609 672.97632564 -191.73567283 648.75360689 -201.625 622.3125 C-201.94017578 621.49241455 -202.25535156 620.6723291 -202.58007812 619.82739258 C-205.08125006 613.18469283 -207.02455753 606.53810551 -208.625 599.625 C-208.87918701 598.52937744 -209.13337402 597.43375488 -209.39526367 596.30493164 C-212.52531791 582.12623097 -214.05775311 567.73136989 -215.625 553.3125 C-215.71243469 552.64884933 -215.79986938 551.98519867 -215.88995361 551.30143738 C-216.69412881 544.94053683 -216.76980469 538.65216021 -216.7578125 532.24609375 C-216.75876923 531.09496597 -216.75972595 529.9438382 -216.76071167 528.75782776 C-216.76138992 526.32300766 -216.75956044 523.88818573 -216.75537109 521.45336914 C-216.75009176 517.81326987 -216.75528967 514.17329822 -216.76171875 510.53320312 C-216.76105648 508.14583307 -216.75977226 505.75846309 -216.7578125 503.37109375 C-216.75983673 502.32014023 -216.76186096 501.26918671 -216.76394653 500.18638611 C-216.72961436 488.52929768 -216.11163293 476.99169028 -215.625 465.3125 C-158.205 465.3125 -100.785 465.3125 -41.625 465.3125 C-41.3125 510.8125 -41.3125 510.8125 -41.23706055 525.08398438 C-41.2004196 529.37214883 -41.2004196 529.37214883 -41.1599884 533.66027832 C-41.14402805 535.54370464 -41.13361321 537.42718372 -41.12788391 539.31066895 C-41.06561603 557.41489166 -40.96909629 578.73112001 -27.5625 592.62890625 C-19.23639794 599.86388606 -9.06304879 601.87759592 1.7734375 601.55078125 C10.49317234 600.75212686 17.13772247 598.87193224 23.47265625 592.6171875 C32.0992266 582.16610638 34.48851747 568.70771034 34.61328125 555.546875 C34.62538887 554.29756195 34.62538887 554.29756195 34.63774109 553.02301025 C34.65151576 551.26145462 34.66226722 549.49987303 34.67016602 547.73828125 C34.68158336 545.97582912 34.7018685 544.21340868 34.73168945 542.45117188 C35.21059967 514.04831787 27.49967959 488.77897709 8.375 467.3125 C7.89981934 466.77705566 7.42463867 466.24161133 6.93505859 465.68994141 C1.08678621 459.13016373 -4.84010063 452.91582803 -11.625 447.3125 C-12.60082031 446.47203125 -13.57664062 445.6315625 -14.58203125 444.765625 C-20.64691736 439.54349087 -26.82339868 434.57528907 -33.265625 429.8203125 C-37.41891365 426.742202 -41.48703978 423.55498786 -45.5625 420.375 C-50.7382078 416.33849448 -55.91784668 412.30838124 -61.125 408.3125 C-67.09489171 403.72955283 -73.03454493 399.10839513 -78.97265625 394.484375 C-83.34644077 391.08007571 -87.72858707 387.68752406 -92.125 384.3125 C-98.09152124 379.73214026 -104.02932171 375.11548357 -109.96166992 370.4909668 C-113.90881026 367.41612729 -117.86794481 364.35934808 -121.85180664 361.33227539 C-141.03199726 346.7293435 -159.86568946 330.43478241 -174.625 311.3125 C-175.058125 310.75578613 -175.49125 310.19907227 -175.9375 309.62548828 C-210.47897936 264.96443489 -219.39141614 202.83399723 -212.85107422 147.62304688 C-212.2862077 143.80489487 -211.52849443 140.06417609 -210.625 136.3125 C-210.42100586 135.45994629 -210.21701172 134.60739258 -210.00683594 133.72900391 C-202.50905192 103.44865202 -187.70161104 79.38911104 -165.625 57.3125 C-165.09519531 56.7246875 -164.56539062 56.136875 -164.01953125 55.53125 C-136.22517784 25.33491543 -90.9057177 10.22079566 -51.625 3.3125 C-50.78324219 3.16006836 -49.94148438 3.00763672 -49.07421875 2.85058594 C-32.79588977 0.05915397 -16.46671035 0.02207174 0 0 Z " fill="#D2042D" transform="translate(1477.625,617.6875)"/>
<path d="M0 0 C8.88644426 8.48615397 12.8576965 17.00124351 17.1015625 28.671875 C17.4315625 16.461875 17.7615625 4.251875 18.1015625 -8.328125 C48.7915625 -8.328125 79.4815625 -8.328125 111.1015625 -8.328125 C111.18991405 34.17814616 111.26370511 76.68432999 111.30582382 119.19066685 C111.31082603 124.22061725 111.31600338 129.25056746 111.32128906 134.28051758 C111.3223383 135.281797 111.32338755 136.28307641 111.32446858 137.31469763 C111.34182521 153.48032145 111.37333645 169.64588777 111.41017368 185.81147759 C111.44771564 202.42616705 111.46982622 219.04082661 111.47791648 235.65555674 C111.48337691 245.88948435 111.50055786 256.12324939 111.53322837 266.3571269 C111.55454034 273.39595565 111.56072528 280.43470162 111.55556801 287.47356021 C111.55303186 291.52122605 111.55663166 295.56860993 111.5783844 299.61622429 C111.76571185 336.37070418 108.28389166 373.00543178 81.9375 400.96875 C65.708241 416.70950287 43.82756271 423.09270768 22.1015625 426.671875 C21.13275146 426.85065186 20.16394043 427.02942871 19.16577148 427.21362305 C7.94677099 429.09786455 -3.23826723 429.02634273 -14.5859375 428.984375 C-15.62723816 428.98221985 -16.66853882 428.9800647 -17.74139404 428.97784424 C-56.95826891 428.84754561 -90.37530156 423.33037388 -121.8984375 398.671875 C-121.30680516 394.3252089 -119.72495912 391.26887481 -117.50390625 387.5078125 C-116.9880899 386.62885063 -116.9880899 386.62885063 -116.46185303 385.73213196 C-115.34394876 383.83256244 -114.21537833 381.939604 -113.0859375 380.046875 C-112.31488858 378.74342107 -111.54413814 377.43979052 -110.77368164 376.13598633 C-104.68022913 365.85554811 -98.38555933 355.7087899 -91.8984375 345.671875 C-88.83674069 346.32501389 -86.29823185 347.36361856 -83.51171875 348.78125 C-60.90361839 360.06165604 -33.90696815 369.14526618 -8.546875 361.7109375 C0.89797441 358.00543611 7.34120086 351.6106855 11.7890625 342.609375 C18.06093074 327.55689122 17.4543742 312.71304704 17.1015625 296.671875 C16.84109131 297.27225586 16.58062012 297.87263672 16.31225586 298.49121094 C15.96300049 299.28817383 15.61374512 300.08513672 15.25390625 300.90625 C14.91093506 301.69225586 14.56796387 302.47826172 14.21459961 303.28808594 C11.41538851 309.28315003 8.03282658 314.22170986 3.1015625 318.671875 C1.8021875 319.909375 1.8021875 319.909375 0.4765625 321.171875 C-13.35443724 332.42061648 -33.79888866 333.92708076 -50.8984375 332.671875 C-66.86223933 330.66476058 -80.61073047 324.2646552 -91.8984375 312.671875 C-92.52105469 312.08148437 -93.14367188 311.49109375 -93.78515625 310.8828125 C-118.04044783 286.13696446 -116.36814756 245.51863115 -116.30141401 213.69290447 C-116.29371607 208.86087757 -116.30089115 204.02886612 -116.30557251 199.19683838 C-116.31100309 191.08415617 -116.30391207 182.97155636 -116.28955078 174.85888672 C-116.27325165 165.54534108 -116.27850389 156.23199284 -116.29503 146.91845202 C-116.30874895 138.8574262 -116.31051359 130.79645899 -116.30271399 122.73542523 C-116.29809123 117.94950722 -116.29726002 113.16368118 -116.30732346 108.37776947 C-116.45025536 29.41777837 -116.45025536 29.41777837 -91.8984375 4.671875 C-67.49689096 -15.77266399 -25.88756479 -20.79378519 0 0 Z " fill="#4169E0" transform="translate(1482.8984375,1468.328125)"/>
<path d="M0 0 C14.04819171 9.39233478 22.53362067 24.60151673 27.1875 40.625 C27.538125 41.82125 27.88875 43.0175 28.25 44.25 C31.84599398 59.91102358 31.46560163 75.6854571 31.41963124 91.65885413 C31.41091395 95.4643516 31.4139227 99.26984324 31.41543579 103.0753479 C31.41647946 109.6525429 31.4102574 116.22969791 31.39896011 122.80688286 C31.38263729 132.31613206 31.3774902 141.82536213 31.37498413 151.33462382 C31.37061762 166.76646913 31.35733697 182.19829317 31.33837891 197.63012695 C31.319993 212.61189671 31.30584979 227.59366067 31.29736328 242.57543945 C31.29683783 243.50045423 31.29631239 244.425469 31.29577102 245.37851452 C31.29316076 250.01950113 31.29063338 254.66048778 31.28814721 259.30147445 C31.26744724 297.74266853 31.23059512 336.18382323 31.1875 374.625 C1.4875 374.625 -28.2125 374.625 -58.8125 374.625 C-58.8218457 365.68035645 -58.83119141 356.73571289 -58.84082031 347.52001953 C-58.87353929 318.88914587 -58.9258329 290.25833783 -58.99042095 261.62751902 C-59.00043821 257.17908853 -59.01028238 252.73065767 -59.02001953 248.28222656 C-59.0219609 247.39663708 -59.02390228 246.5110476 -59.02590248 245.59862207 C-59.05690986 231.26585904 -59.07389961 216.93311203 -59.08569422 202.60032178 C-59.09811232 187.88972644 -59.1256286 173.179215 -59.16711307 158.46867263 C-59.19222961 149.39402003 -59.20561863 140.31950659 -59.20392957 131.24481873 C-59.20389978 125.01900882 -59.21855698 118.7933405 -59.24466428 112.56758578 C-59.25928851 108.97748598 -59.26753203 105.38767655 -59.25830269 101.79755211 C-59.24845067 97.89911907 -59.2695753 94.00119317 -59.29351807 90.10281372 C-59.28575765 88.97633049 -59.27799723 87.84984726 -59.27000165 86.68922818 C-59.36075122 78.32995616 -61.17864326 71.75137556 -65.6875 64.6875 C-69.64683367 60.84461732 -73.23206493 59.43851695 -78.6875 59.1875 C-84.58521286 59.40921853 -89.19749245 60.8533644 -93.3125 65.21484375 C-97.41710146 70.99304759 -98.5537051 77.76967101 -99.8125 84.625 C-100.07299086 85.85269702 -100.07299086 85.85269702 -100.33874416 87.105196 C-101.01162453 92.10441041 -100.96617018 97.05127188 -100.97071838 102.09030151 C-100.97565636 103.25107338 -100.98059434 104.41184525 -100.98568195 105.60779202 C-100.99836725 108.82088323 -101.00666872 112.03395113 -101.01310861 115.24705982 C-101.02113179 118.71530194 -101.03482294 122.18352226 -101.04782104 125.65174866 C-101.06955663 131.65776764 -101.08771176 137.66378886 -101.10342598 143.66982651 C-101.12615121 152.35351785 -101.15429035 161.03718503 -101.18374526 169.72085585 C-101.23138865 183.80998697 -101.27466164 197.89912798 -101.31518555 211.98828125 C-101.35455703 225.67351043 -101.39598721 239.35873083 -101.44018555 253.04394531 C-101.44290982 253.88768872 -101.44563409 254.73143213 -101.44844092 255.60074352 C-101.46212067 259.83361199 -101.47584089 264.06648032 -101.48958123 268.29934859 C-101.60349491 303.40788182 -101.70951028 338.51643269 -101.8125 373.625 C-131.8425 373.625 -161.8725 373.625 -192.8125 373.625 C-192.8125 247.895 -192.8125 122.165 -192.8125 -7.375 C-162.7825 -7.375 -132.7525 -7.375 -101.8125 -7.375 C-101.4825 7.145 -101.1525 21.665 -100.8125 36.625 C-99.1625 32.005 -97.5125 27.385 -95.8125 22.625 C-89.14728658 9.24038444 -79.33699353 -2.98857058 -65.03125 -8.43359375 C-62.63533155 -9.16998633 -60.25357431 -9.80933216 -57.8125 -10.375 C-57.19922852 -10.54628418 -56.58595703 -10.71756836 -55.95410156 -10.89404297 C-37.28249222 -15.08727945 -15.95064233 -9.67889317 0 0 Z " fill="#4169E1" transform="translate(1299.8125,1467.375)"/>
<path d="M0 0 C30.03 0 60.06 0 91 0 C93.38258593 22.63456632 95.75275299 45.26400207 97.96479082 67.91484165 C98.31103146 71.45642135 98.65906853 74.99782456 99.00692749 78.53924561 C99.80742298 86.69142481 100.60604079 94.8437873 101.4043045 102.9961853 C102.4273718 113.44408364 103.45101465 123.89192497 104.47707593 134.33952975 C104.81985984 137.83044171 105.16216409 141.32139919 105.50325394 144.81247711 C107.22358562 162.49655771 107.22358562 162.49655771 109.14379883 180.15966797 C109.85181115 186.35080021 110.3647992 192.51462597 110.59765625 198.7421875 C110.63684677 199.64268829 110.67603729 200.54318909 110.71641541 201.47097778 C110.83749568 204.27211313 110.95056624 207.07348573 111.0625 209.875 C111.17934982 212.69785833 111.29803584 215.52061987 111.41929626 218.34329224 C111.49339799 220.07744635 111.56490822 221.81171439 111.6330719 223.54611206 C111.90477425 230.04777994 112.42344917 236.51872542 113 243 C113.05185204 242.11443672 113.05185204 242.11443672 113.10475159 241.21098328 C115.55800507 199.65506058 119.38293109 158.36468681 124 117 C124.15622994 115.59788234 124.31243925 114.19576239 124.46862793 112.79364014 C126.10200257 98.1387523 127.75834814 83.48654645 129.4296875 68.8359375 C131.06997555 54.45403549 132.63859646 40.06510554 134.17578125 25.671875 C135.09537843 17.11221219 136.04930394 8.55626457 137 0 C167.03 0 197.06 0 228 0 C226.85787799 13.70546407 226.85787799 13.70546407 225.5625 20.375 C224.61426578 25.35197539 223.80055767 30.32751843 223.10546875 35.34692383 C222.12221671 42.2768144 221.00764723 49.17872902 219.84007454 56.07972908 C219.48232578 58.19467497 219.12682413 60.30998897 218.77183533 62.42539978 C218.2604727 65.47198372 217.74841559 68.51844954 217.23577881 71.56481934 C212.97231925 96.91065185 208.80578187 122.26743721 204.84246826 147.66217041 C201.47102111 169.24708491 197.90517997 190.79658262 194.27294922 212.33886719 C194.06922195 213.55034927 193.86549469 214.76183136 193.65559387 216.01002502 C193.27916776 218.24722231 192.90129131 220.48417636 192.52153015 222.72080994 C191.61980764 228.08003814 190.78392458 233.44149547 190.02905273 238.82348633 C189.06651263 245.66016242 187.96138461 252.46761555 186.81251526 259.27523804 C186.45731926 261.38024218 186.10433404 263.48560776 185.75183105 265.59106445 C184.87689649 270.81432197 183.99837286 276.03697445 183.11993408 281.25964355 C182.37370868 285.69712041 181.62890737 290.13483204 180.88587952 294.57284546 C180.54276017 296.61886491 180.19764776 298.66454102 179.85241699 300.71020508 C178.63253508 307.9917706 177.51568516 315.27852332 176.49041748 322.58990479 C175.68283664 328.20538071 174.75934151 333.80103313 173.8359375 339.3984375 C173.66102783 340.46553955 173.48611816 341.5326416 173.3059082 342.63208008 C172.66384267 346.54664464 172.01928346 350.46079987 171.375 354.375 C169.93125 363.16125 168.4875 371.9475 167 381 C132.02 381 97.04 381 61 381 C58.75003872 372.00015487 58.75003872 372.00015487 58.10205078 367.89868164 C57.95494659 366.97894058 57.80784241 366.05919952 57.65628052 365.11158752 C57.50416107 364.1376152 57.35204163 363.16364288 57.1953125 362.16015625 C56.94743484 360.60137001 56.94743484 360.60137001 56.69454956 359.01109314 C56.16804348 355.69541186 55.64640093 352.37898751 55.125 349.0625 C54.78288148 346.90164053 54.44043608 344.74083279 54.09765625 342.58007812 C53.40766122 338.22826592 52.71937284 333.87618866 52.03222656 329.52392578 C51.02642612 323.15926892 50.01105244 316.79617096 48.9921875 310.43359375 C48.82722778 309.40309402 48.66226807 308.3725943 48.49230957 307.31086731 C47.67072101 302.18068567 46.84750899 297.05076897 46.02246094 291.92114258 C44.24406621 280.85285009 42.49210724 269.7808579 40.7734375 258.703125 C40.58181534 257.46810242 40.39019318 256.23307983 40.19276428 254.96063232 C39.89975685 253.07214569 39.89975685 253.07214569 39.60083008 251.14550781 C35.3799866 223.94683647 31.03172449 196.77283867 26.55371094 169.61523438 C23.19221593 149.22520273 19.92303837 128.82163189 16.69775391 108.40966797 C15.74385702 102.37602207 14.77921442 96.34410402 13.8125 90.3125 C13.65861816 89.35182617 13.50473633 88.39115234 13.34619141 87.40136719 C13.04808146 85.54051659 12.74990574 83.67967652 12.45166016 81.81884766 C11.46625027 75.66882464 10.4826145 69.51851724 9.49926758 63.36816406 C8.66855103 58.17344367 7.83611184 52.97901117 7 47.78515625 C5.22285299 36.73601316 3.46841185 25.68344057 1.75 14.625 C1.5746875 13.50681885 1.399375 12.3886377 1.21875 11.23657227 C1.05890625 10.20201904 0.8990625 9.16746582 0.734375 8.1015625 C0.59225586 7.18713379 0.45013672 6.27270508 0.30371094 5.33056641 C0 3 0 3 0 0 Z " fill="#4169E0" transform="translate(728,1460)"/>
<path d="M0 0 C29.37 0 58.74 0 89 0 C89 122.43 89 244.86 89 371 C119.36 371 149.72 371 181 371 C181 396.08 181 421.16 181 447 C121.27 447 61.54 447 0 447 C0 299.49 0 151.98 0 0 Z " fill="#4169E0" transform="translate(409,1394)"/>
<path d="M0 0 C30.03 0 60.06 0 91 0 C91 126.06 91 252.12 91 382 C60.97 382 30.94 382 0 382 C0 255.94 0 129.88 0 0 Z " fill="#4169E1" transform="translate(613,1460)"/>
<path d="M0 0 C30.03 0 60.06 0 91 0 C91 125.73 91 251.46 91 381 C60.97 381 30.94 381 0 381 C0 255.27 0 129.54 0 0 Z " fill="#4169E0" transform="translate(980,1460)"/>
<path d="M0 0 C9.70324092 7.78836985 14.35690237 19.55547396 16.87109375 31.40234375 C17.12439453 32.52962891 17.12439453 32.52962891 17.3828125 33.6796875 C19.3841652 42.86699948 19.8916527 51.82136666 19.85961914 61.19750977 C19.85976517 62.33023819 19.85991119 63.46296661 19.86006165 64.63002014 C19.859369 68.34711673 19.8516071 72.06416224 19.84375 75.78125 C19.84188352 78.36913526 19.8404607 80.95702088 19.83946228 83.54490662 C19.83604367 89.64324602 19.82817468 95.74156457 19.81811279 101.83989614 C19.80579811 109.47073456 19.80035594 117.10157598 19.79492188 124.73242188 C19.78520816 138.33074325 19.76517167 151.92902513 19.74609375 165.52734375 C-6.98390625 165.52734375 -33.71390625 165.52734375 -61.25390625 165.52734375 C-61.37423268 138.16867925 -61.37423268 138.16867925 -61.40039062 126.38476562 C-61.41823005 118.38656885 -61.43918902 110.38850084 -61.48022461 102.39038086 C-61.51314603 95.93235325 -61.53082747 89.47443776 -61.53853798 83.01633263 C-61.54402326 80.56914191 -61.55473191 78.12195637 -61.57109642 75.67481422 C-61.72752853 51.28169704 -61.84355939 23.6153889 -44.34375 4.43359375 C-32.13594031 -7.02184595 -14.22849992 -9.29661087 0 0 Z " fill="#FEFEFE" transform="translate(1022.25390625,751.47265625)"/>
<path d="M0 0 C57.0024696 0 57.0024696 0 64.6640625 7.28515625 C75.32957696 20.97568505 76.16119569 39.37345329 76.1328125 56.01171875 C76.13376923 57.25693802 76.13472595 58.50215729 76.13571167 59.78511047 C76.13656313 63.08281221 76.13256503 66.38046621 76.12695312 69.67816162 C76.12372837 72.99573365 76.13139064 76.31329173 76.13671875 79.63085938 C76.13605747 82.19531275 76.13477528 84.75976605 76.1328125 87.32421875 C76.13483673 88.5007048 76.13686096 89.67719086 76.13894653 90.889328 C76.07855277 112.62384566 73.68462851 135.9243821 57.8125 152.25 C39.88607054 163.40422277 21.62304695 158 0 158 C0 105.86 0 53.72 0 0 Z " fill="#FEFCFC" transform="translate(498,657)"/>
<path d="M0 0 C7.25228246 4.07399134 11.38442718 12.10391095 13.87433147 19.76867485 C14.78635384 23.39601033 15.06636214 26.41112153 15.07319641 30.13870239 C15.08028122 31.43373184 15.08736603 32.72876129 15.09466553 34.06303406 C15.0923721 35.4809879 15.08986245 36.89894141 15.0871582 38.31689453 C15.09150991 39.82391105 15.09669458 41.33092535 15.10264587 42.8379364 C15.11600291 46.91886819 15.11661785 50.99970715 15.11408257 55.08065653 C15.11300988 58.49711625 15.11790425 61.91355742 15.122688 65.33001316 C15.13377341 73.39905944 15.13422708 81.46805917 15.12817383 89.53710938 C15.12214447 97.83438295 15.13442081 106.13148651 15.1557439 114.42873108 C15.17342228 121.57297626 15.17935117 128.71716765 15.17610615 135.86143386 C15.17430188 140.11903562 15.17684261 144.37651629 15.19082069 148.63409805 C15.20349508 152.64463068 15.20136524 156.65490097 15.18840981 160.66543007 C15.18606461 162.12740357 15.18870376 163.58939608 15.19703293 165.05134773 C15.26075908 177.11865771 14.68039796 190.64463823 6.8125 200.5 C2.88036039 204.23026637 -0.8367915 205.79433098 -6.25 206 C-12.29189767 205.64786486 -16.5073211 204.10380713 -20.9375 199.875 C-28.53934609 189.77254664 -27.34038784 175.93510729 -27.34863281 163.98706055 C-27.35326769 162.41754034 -27.35829325 160.84802124 -27.36367798 159.27850342 C-27.37673704 155.03250661 -27.38323386 150.78652557 -27.38768864 146.54051185 C-27.39062911 143.88300668 -27.39473565 141.22550573 -27.39919281 138.5680027 C-27.41284891 130.23914031 -27.42252551 121.91028768 -27.4263947 113.58141488 C-27.43087483 103.99260715 -27.44842856 94.40394201 -27.4773953 84.81517762 C-27.49905708 77.38475433 -27.50910133 69.95437105 -27.51043582 62.52391654 C-27.51148037 58.09423912 -27.51731364 53.66469607 -27.53525543 49.23505211 C-27.55181479 45.06612035 -27.55385377 40.89742291 -27.54511642 36.72846985 C-27.54435032 35.20598533 -27.54863198 33.68348778 -27.55857468 32.16103554 C-27.68455936 11.65345837 -27.68455936 11.65345837 -21.875 4 C-15.41364093 -2.01056657 -8.17217189 -3.51575272 0 0 Z " fill="#FDFDFE" transform="translate(1486.1875,1526.5)"/>
<path d="M0 0 C30.36 0 60.72 0 92 0 C92 21.12 92 42.24 92 64 C61.64 64 31.28 64 0 64 C0 42.88 0 21.76 0 0 Z " fill="#446BE1" transform="translate(613,1371)"/>
<path d="M0 0 C30.03 0 60.06 0 91 0 C91 21.12 91 42.24 91 64 C60.97 64 30.94 64 0 64 C0 42.88 0 21.76 0 0 Z " fill="#426AE1" transform="translate(980,1371)"/>
</svg>
