<?xml version="1.0" encoding="UTF-8"?>
<svg version="1.1" xmlns="http://www.w3.org/2000/svg" width="2000" height="2000">
<path d="M0 0 C660 0 1320 0 2000 0 C2000 660 2000 1320 2000 2000 C1340 2000 680 2000 0 2000 C0 1340 0 680 0 0 Z " fill="#FEFEFE" transform="translate(0,0)"/>
<path d="M0 0 C660 0 1320 0 2000 0 C2000 215.16 2000 430.32 2000 652 C1999.01 652.66 1998.02 653.32 1997 654 C1997.66 652.02 1998.32 650.04 1999 648 C1998.33484375 647.77183594 1997.6696875 647.54367187 1996.984375 647.30859375 C1993.11990312 645.61409365 1989.76209906 643.38673054 1986.25 641.0625 C1984.72403427 640.06368607 1983.19799043 639.06499145 1981.671875 638.06640625 C1980.89521484 637.55609863 1980.11855469 637.04579102 1979.31835938 636.52001953 C1975.7232735 634.16292132 1972.11134265 631.83208039 1968.5 629.5 C1967.08324151 628.58347526 1965.66657509 627.66680818 1964.25 626.75 C1963.54875 626.29625 1962.8475 625.8425 1962.125 625.375 C1802.75 522.25 1802.75 522.25 1800.62695312 520.8762207 C1799.20382839 519.95540411 1797.78065093 519.03466902 1796.35742188 518.11401367 C1792.91413629 515.88649091 1789.47163872 513.65777601 1786.03125 511.42578125 C1777.66620143 506.00168183 1769.27686293 500.61691084 1760.875 495.25 C1749.78147054 488.16090258 1738.74530345 480.98709817 1727.72705078 473.78173828 C1715.20131502 465.59795855 1702.64158339 457.46621141 1690.07666016 449.34277344 C1687.26185956 447.52271662 1684.44767306 445.70171158 1681.63354492 443.88061523 C1680.20799636 442.95814388 1678.78237755 442.03578108 1677.35668945 441.11352539 C1673.91363957 438.8861784 1670.47139259 436.65761633 1667.03125 434.42578125 C1658.66620167 429.00168199 1650.27688722 423.61687258 1641.875 418.25 C1631.64593368 411.71390006 1621.46525154 405.10679634 1611.3046875 398.46484375 C1604.56102494 394.0566435 1597.79584148 389.68199085 1591.02832031 385.31054688 C1587.51767204 383.04223201 1584.00895887 380.77092702 1580.5 378.5 C1579.08334206 377.58331985 1577.66667541 376.66665316 1576.25 375.75 C1506.125 330.375 1436 285 1259.62695312 170.8762207 C1258.20382839 169.95540411 1256.78065093 169.03466902 1255.35742188 168.11401367 C1251.91413629 165.88649091 1248.47163872 163.65777601 1245.03125 161.42578125 C1237.77653952 156.72170037 1230.50670318 152.04258964 1223.21875 147.39013672 C1210.03285114 138.97147883 1196.92961229 130.43500216 1183.84423828 121.86132812 C1174.29735683 115.61365223 1164.70063778 109.44480634 1155.08618164 103.30175781 C1143.78642176 96.08187018 1132.52865821 88.80194443 1121.3046875 81.46484375 C1114.56102494 77.0566435 1107.79584148 72.68199085 1101.02832031 68.31054688 C1097.51767206 66.04223202 1094.00894818 63.77094352 1090.5 61.5 C1086.28561254 58.77273129 1082.07103985 56.04575138 1077.85546875 53.3203125 C1077.1692041 52.8763916 1076.48293945 52.4324707 1075.77587891 51.97509766 C1074.38421966 51.07541615 1072.99196695 50.17665195 1071.59912109 49.27880859 C1067.67160726 46.74373595 1063.76308709 44.1830784 1059.87109375 41.59375 C1047.49291319 33.26188921 1047.49291319 33.26188921 1034 27 C1033.030625 26.63648437 1032.06125 26.27296875 1031.0625 25.8984375 C1006.80259502 17.29607323 981.04149786 19.03958213 957.91015625 29.97265625 C952.68208479 32.58862211 947.92694311 35.82261232 943.13671875 39.15625 C938.41365081 42.4398517 933.55241616 45.49470647 928.6875 48.5625 C920.30775854 53.86724834 911.9821514 59.25093694 903.6875 64.6875 C902.58374023 65.41090576 901.47998047 66.13431152 900.34277344 66.87963867 C899.26543945 67.58580322 898.18810547 68.29196777 897.078125 69.01953125 C890.06451651 73.61664072 883.02606334 78.17456997 875.97998047 82.72167969 C872.48479695 84.97824946 868.99260747 87.23944609 865.5 89.5 C864.08334642 90.41668689 862.66667978 91.3333536 861.25 92.25 C860.54875 92.70375 859.8475 93.1575 859.125 93.625 C857 95 854.875 96.375 852.75 97.75 C852.04939453 98.20334717 851.34878906 98.65669434 850.62695312 99.1237793 C849.20382839 100.04459589 847.78065093 100.96533098 846.35742188 101.88598633 C842.91413629 104.11350909 839.47163872 106.34222399 836.03125 108.57421875 C827.66620167 113.99831801 819.27688722 119.38312742 810.875 124.75 C800.64593368 131.28609994 790.46525154 137.89320366 780.3046875 144.53515625 C773.56102494 148.9433565 766.79584148 153.31800915 760.02832031 157.68945312 C756.51767204 159.95776799 753.00895887 162.22907298 749.5 164.5 C748.08334206 165.41668015 746.66667541 166.33334684 745.25 167.25 C744.54875 167.70375 743.8475 168.1575 743.125 168.625 C673 214 602.875 259.375 515.75 315.75 C515.04939453 316.20334717 514.34878906 316.65669434 513.62695312 317.1237793 C512.20382839 318.04459589 510.78065093 318.96533098 509.35742188 319.88598633 C505.91413629 322.11350909 502.47163872 324.34222399 499.03125 326.57421875 C491.77653952 331.27829963 484.50670318 335.95741036 477.21875 340.60986328 C465.08365712 348.35762447 453.01452396 356.1983906 440.97265625 364.08984375 C433.99373685 368.66277105 426.99055045 373.19748782 419.97998047 377.72167969 C416.48479695 379.97824946 412.99260747 382.23944609 409.5 384.5 C408.08334642 385.41668689 406.66667978 386.3333536 405.25 387.25 C404.198125 387.930625 404.198125 387.930625 403.125 388.625 C395.33333333 393.66666667 387.54166667 398.70833333 379.75 403.75 C379.04939453 404.20334717 378.34878906 404.65669434 377.62695312 405.1237793 C376.20382839 406.04459589 374.78065093 406.96533098 373.35742188 407.88598633 C369.91413629 410.11350909 366.47163872 412.34222399 363.03125 414.57421875 C354.66620167 419.99831801 346.27688722 425.38312742 337.875 430.75 C327.64593368 437.28609994 317.46525154 443.89320366 307.3046875 450.53515625 C300.56102494 454.9433565 293.79584148 459.31800915 287.02832031 463.68945312 C283.51767204 465.95776799 280.00895887 468.22907298 276.5 470.5 C275.08334206 471.41668015 273.66667541 472.33334684 272.25 473.25 C271.198125 473.930625 271.198125 473.930625 270.125 474.625 C129.87499978 565.37500014 129.87499978 565.37500014 40.6237793 623.12573242 C39.21111173 624.03984965 37.79851375 624.95407443 36.38598633 625.8684082 C32.78370468 628.19998074 29.18012836 630.52951034 25.57421875 632.85546875 C24.11189417 633.7993475 22.64965352 634.74335629 21.1875 635.6875 C20.48496094 636.1410083 19.78242188 636.5945166 19.05859375 637.06176758 C13.70508725 640.52532024 8.40271063 644.05848831 3.125 647.63671875 C1 649 1 649 0 649 C0 434.83 0 220.66 0 0 Z " fill="#FEFEFE" transform="translate(0,0)"/>
<path d="M0 0 C3.67635704 2.46908502 7.39878202 4.86480857 11.12304688 7.26074219 C12.51258247 8.15885072 13.90190655 9.05728659 15.29101562 9.95605469 C15.97341309 10.39723633 16.65581055 10.83841797 17.35888672 11.29296875 C20.88503004 13.57298148 24.41023497 15.85444425 27.93554688 18.13574219 C29.35220918 19.0524156 30.76887584 19.96908227 32.18554688 20.88574219 C57.68554687 37.38574218 57.68554687 37.38574218 59.80859375 38.75952148 C61.23171848 39.68033807 62.65489595 40.60107317 64.078125 41.52172852 C67.52141059 43.74925128 70.96390816 45.97796618 74.40429688 48.20996094 C82.76934545 53.63406035 91.15868395 59.01883135 99.56054688 64.38574219 C110.66570588 71.48227123 121.71364077 78.66337549 132.74365234 85.87597656 C144.37466473 93.47948983 156.03694805 101.03109795 167.74804688 108.51074219 C177.91522071 115.00431246 188.03310009 121.57003538 198.13085938 128.17089844 C204.87452194 132.57909869 211.6397054 136.95375133 218.40722656 141.32519531 C221.91787483 143.59351018 225.42658801 145.86481517 228.93554688 148.13574219 C230.35220481 149.05242234 231.76887147 149.96908903 233.18554688 150.88574219 C303.31054688 196.26074219 373.43554687 241.63574219 549.80859375 355.75952148 C551.23171848 356.68033807 552.65489595 357.60107317 554.078125 358.52172852 C557.52141059 360.74925128 560.96390816 362.97796618 564.40429688 365.20996094 C572.7693452 370.6340602 581.15865965 376.01886961 589.56054688 381.38574219 C599.7935703 387.92437061 609.97819307 394.53402063 620.14257812 401.17871094 C625.47536175 404.66468452 630.82217748 408.12853775 636.17382812 411.58544922 C639.8030254 413.93045573 643.42870071 416.28065874 647.04882812 418.63964844 C656.25559289 424.63847474 665.48655571 430.59669196 674.74804688 436.51074219 C684.91527971 443.00421906 695.03310112 449.57003605 705.13085938 456.17089844 C711.87452194 460.57909869 718.6397054 464.95375133 725.40722656 469.32519531 C728.91787483 471.59351018 732.42658801 473.86481517 735.93554688 476.13574219 C737.35220481 477.05242234 738.76887147 477.96908903 740.18554688 478.88574219 C901.68554688 583.38574219 901.68554688 583.38574219 903.81347656 584.76269531 C905.22030765 585.67295969 906.62720791 586.58311717 908.03417969 587.49316406 C911.72692552 589.88188225 915.41820433 592.27282777 919.10742188 594.66699219 C919.87376953 595.16392578 920.64011719 595.66085937 921.4296875 596.17285156 C922.89237396 597.12138157 924.35463981 598.0705606 925.81640625 599.02050781 C929.3197302 601.29136988 932.83759515 603.51601869 936.43554688 605.63574219 C933.39256775 623.24444803 906.95339364 644.37124306 893.56835938 654.13671875 C853.22825887 682.4893077 803.92165149 696.27187534 754.74804688 688.01074219 C725.81459741 682.70888959 699.45252212 670.59004894 675.33203125 653.92871094 C671.94916526 651.62236976 668.50312952 649.41401784 665.06054688 647.19824219 C664.35140137 646.74070557 663.64225586 646.28316895 662.91162109 645.81176758 C661.47224078 644.88309831 660.03262409 643.95479533 658.59277344 643.02685547 C655.0375225 640.73420949 651.48677836 638.43460701 647.93554688 636.13574219 C646.50847234 635.2125515 645.08138902 634.2893744 643.65429688 633.36621094 C640.92402757 631.5996766 638.19489402 629.83141022 635.46679688 628.06152344 C627.10174855 622.63742418 618.7124341 617.25261476 610.31054688 611.88574219 C600.08148056 605.34964225 589.90079841 598.74253853 579.74023438 592.10058594 C572.99657181 587.69238569 566.23138835 583.31773304 559.46386719 578.94628906 C555.95321892 576.6779742 552.44450574 574.40666921 548.93554688 572.13574219 C547.51888894 571.21906203 546.10222228 570.30239535 544.68554688 569.38574219 C474.56054688 524.01074219 404.43554688 478.63574219 245.0625 375.51196289 C243.63937527 374.5911463 242.2161978 373.67041121 240.79296875 372.74975586 C237.34968316 370.52223309 233.90718559 368.2935182 230.46679688 366.06152344 C223.21208639 361.35744256 215.94225006 356.67833182 208.65429688 352.02587891 C196.51920399 344.27811772 184.45007084 336.43735159 172.40820312 328.54589844 C165.41771827 323.96539289 158.40268716 319.42357691 151.38037109 314.89208984 C149.41941521 313.6253212 147.46039958 312.35560526 145.50195312 311.08496094 C137.12561679 305.65237524 128.72430568 300.26019797 120.31054688 294.88574219 C110.08148056 288.34964225 99.90079841 281.74253853 89.74023438 275.10058594 C82.99657181 270.69238569 76.23138835 266.31773304 69.46386719 261.94628906 C65.95321892 259.6779742 62.44450574 257.40666921 58.93554688 255.13574219 C57.51888894 254.21906203 56.10222228 253.30239535 54.68554688 252.38574219 C-21.81445315 202.88574217 -21.81445315 202.88574217 -23.94091797 201.50976562 C-25.35266687 200.59630014 -26.76445053 199.68288838 -28.17626953 198.76953125 C-31.79347005 196.42933364 -35.40999755 194.08810633 -39.02539062 191.74511719 C-46.85084618 186.67511584 -54.68785542 181.62605562 -62.56445312 176.63574219 C-70.99595236 181.43862646 -79.15621491 186.53558919 -87.25195312 191.88574219 C-88.39876522 192.64017909 -89.54582259 193.39424329 -90.69311523 194.14794922 C-92.9545141 195.63357121 -95.21527209 197.12014726 -97.47558594 198.60742188 C-101.51461263 201.25966925 -105.56740305 203.89005068 -109.62695312 206.51074219 C-110.29299561 206.9409668 -110.95903809 207.37119141 -111.64526367 207.81445312 C-112.95820707 208.66230493 -114.27127467 209.50996444 -115.58447266 210.35742188 C-119.07965617 212.61399165 -122.57184565 214.87518828 -126.06445312 217.13574219 C-127.4811067 218.05242908 -128.89777334 218.96909579 -130.31445312 219.88574219 C-131.01570312 220.33949219 -131.71695313 220.79324219 -132.43945312 221.26074219 C-157.23111979 237.30240885 -182.02278646 253.34407552 -206.81445312 269.38574219 C-207.51505859 269.83908936 -208.21566406 270.29243652 -208.9375 270.75952148 C-210.36062473 271.68033807 -211.7838022 272.60107317 -213.20703125 273.52172852 C-216.65031684 275.74925128 -220.09281441 277.97796618 -223.53320312 280.20996094 C-231.89825145 285.6340602 -240.2875659 291.01886961 -248.68945312 296.38574219 C-258.91851944 302.92184213 -269.09920159 309.52894584 -279.25976562 316.17089844 C-286.00342819 320.57909869 -292.76861165 324.95375133 -299.53613281 329.32519531 C-303.04678108 331.59351018 -306.55549426 333.86481517 -310.06445312 336.13574219 C-311.48111106 337.05242234 -312.89777772 337.96908903 -314.31445312 338.88574219 C-315.01570312 339.33949219 -315.71695313 339.79324219 -316.43945312 340.26074219 C-386.56445312 385.63574219 -456.68945312 431.01074219 -628.81445312 542.38574219 C-629.86705322 543.06685059 -629.86705322 543.06685059 -630.94091797 543.76171875 C-632.35266687 544.67518424 -633.76445053 545.588596 -635.17626953 546.50195312 C-638.79347005 548.84215074 -642.40999755 551.18337804 -646.02539062 553.52636719 C-646.75886719 554.00146729 -647.49234375 554.47656738 -648.24804688 554.96606445 C-649.69109383 555.90092609 -651.13381086 556.83629721 -652.57617188 557.7722168 C-655.71758342 559.80770062 -658.86393837 561.83207339 -662.04101562 563.81152344 C-663.03875 564.43414063 -664.03648437 565.05675781 -665.06445312 565.69824219 C-665.92039062 566.22546875 -666.77632812 566.75269531 -667.65820312 567.29589844 C-669.69568226 568.5027075 -669.69568226 568.5027075 -670.56445312 570.63574219 C-669.736875 570.98185547 -669.736875 570.98185547 -668.89257812 571.33496094 C-653.66512662 579.84291622 -644.84101205 599.24281137 -640.18945312 615.19433594 C-634.52008266 635.91485665 -632.39343689 657.44583233 -632.43164062 678.88183594 C-632.43020554 680.70220116 -632.43020554 680.70220116 -632.42874146 682.55934143 C-632.42806592 685.10637464 -632.42987608 687.65340963 -632.43408203 690.20043945 C-632.43943445 694.05977313 -632.4341179 697.91899021 -632.42773438 701.77832031 C-632.42839536 704.27115911 -632.42967694 706.76399783 -632.43164062 709.25683594 C-632.42961639 710.39060165 -632.42759216 711.52436737 -632.42550659 712.69248962 C-632.46100752 725.06047885 -633.2075056 736.98240472 -636.18945312 749.01074219 C-636.4545166 750.08783447 -636.71958008 751.16492676 -636.99267578 752.2746582 C-640.4138831 765.60739237 -644.8797723 777.5253611 -654.56445312 787.63574219 C-655.26828125 788.39113281 -655.97210937 789.14652344 -656.69726562 789.92480469 C-663.90398114 797.03380202 -672.57228781 801.2231135 -681.56445312 805.63574219 C-680.73042969 805.92707031 -679.89640625 806.21839844 -679.03710938 806.51855469 C-664.21891648 811.91624694 -653.79680279 819.40230985 -646.56445312 833.63574219 C-642.4310264 842.53098822 -641.00031215 852.01451727 -639.56445312 861.63574219 C-639.3954097 862.66632751 -639.22636627 863.69691284 -639.05220032 864.75872803 C-638.54242937 868.81080501 -638.42383403 872.77378723 -638.43505859 876.84863281 C-638.43332893 877.6489455 -638.43159927 878.44925819 -638.4298172 879.27382278 C-638.42545518 881.94656678 -638.4284193 884.61924732 -638.43164062 887.29199219 C-638.43062175 889.22202574 -638.42928045 891.15205915 -638.42764282 893.08209229 C-638.42492015 898.33582143 -638.42945689 903.58952139 -638.43588257 908.84324646 C-638.43945122 912.13398324 -638.44107289 915.42471563 -638.44213867 918.7154541 C-638.45297088 945.79904584 -638.56905471 972.88117867 -638.79101562 999.96386719 C-638.8006068 1001.13431328 -638.81019798 1002.30475937 -638.8200798 1003.51067352 C-639.03188938 1028.88603657 -639.3068397 1054.26081944 -639.56445312 1079.63574219 C-673.55445313 1079.63574219 -707.54445313 1079.63574219 -742.56445312 1079.63574219 C-742.60183594 1064.08707031 -742.63921875 1048.53839844 -742.67773438 1032.51855469 C-742.70800621 1022.67479573 -742.73902698 1012.8310486 -742.7734375 1002.98730469 C-742.82792914 987.35906033 -742.87934191 971.73084883 -742.91088867 956.10253906 C-742.933878 944.72056733 -742.96728666 933.33868178 -743.01315469 921.95677841 C-743.0370741 915.93135864 -743.05581135 909.90602416 -743.06206703 903.88055801 C-743.06812357 898.20558309 -743.08814441 892.53082633 -743.11872864 886.85593224 C-743.12749966 884.77672403 -743.13123339 882.69748729 -743.12946129 880.61826134 C-743.12780111 877.77073973 -743.14457124 874.92387739 -743.16572571 872.07644653 C-743.15845434 870.85363548 -743.15845434 870.85363548 -743.15103608 869.60612118 C-743.24886954 861.57993965 -744.97689383 852.65311374 -750.56445312 846.63574219 C-760.60259002 841.16368922 -771.2992713 840.50229464 -782.56445312 839.63574219 C-782.56445312 918.83574219 -782.56445312 998.03574219 -782.56445312 1079.63574219 C-817.54445313 1079.63574219 -852.52445313 1079.63574219 -888.56445312 1079.63574219 C-888.56445312 950.60574219 -888.56445312 821.57574219 -888.56445312 688.63574219 C-890.21445312 688.96574219 -891.86445312 689.29574219 -893.56445312 689.63574219 C-930.45652622 691.69279246 -965.01554184 685.20316709 -997.56445312 667.63574219 C-998.17659668 667.30960938 -998.78874023 666.98347656 -999.41943359 666.64746094 C-1011.1498912 660.3578057 -1021.48095946 652.78102354 -1031.25585938 643.75683594 C-1033.37940749 641.80575874 -1035.55120993 639.93605936 -1037.75195312 638.07324219 C-1044.04122206 632.56073555 -1049.11336907 626.02639533 -1054.31445312 619.51074219 C-1054.78665283 618.92478271 -1055.25885254 618.33882324 -1055.74536133 617.73510742 C-1058.52579999 614.20924285 -1060.68931536 610.74854436 -1062.56445312 606.63574219 C-1055.94510538 601.61513521 -1049.165301 597.05675162 -1042.10131836 592.69848633 C-1036.55929261 589.27427621 -1031.08351265 585.75693622 -1025.62695312 582.19824219 C-1024.78165039 581.6470874 -1023.93634766 581.09593262 -1023.06542969 580.52807617 C-1021.37680861 579.42665382 -1019.68833031 578.32501254 -1018 577.22314453 C-1014.29795565 574.81028443 -1010.58795453 572.4097952 -1006.87695312 570.01074219 C-1006.18738525 569.56480713 -1005.49781738 569.11887207 -1004.78735352 568.65942383 C-1003.40531773 567.76571926 -1002.02323788 566.87208284 -1000.64111328 565.97851562 C-997.11496996 563.6985029 -993.58976503 561.41704012 -990.06445312 559.13574219 C-988.64779082 558.21906877 -987.23112416 557.3024021 -985.81445312 556.38574219 C-985.11320313 555.93199219 -984.41195312 555.47824219 -983.68945312 555.01074219 C-913.56445313 509.63574219 -843.43945313 464.26074219 -756.31445312 407.88574219 C-755.61384766 407.43239502 -754.91324219 406.97904785 -754.19140625 406.51196289 C-752.76828152 405.5911463 -751.34510405 404.67041121 -749.921875 403.74975586 C-746.47858941 401.52223309 -743.03609184 399.2935182 -739.59570312 397.06152344 C-731.2306548 391.63742418 -722.84134035 386.25261476 -714.43945312 380.88574219 C-704.21038681 374.34964225 -694.02970466 367.74253853 -683.86914062 361.10058594 C-677.12547806 356.69238569 -670.3602946 352.31773304 -663.59277344 347.94628906 C-660.08212517 345.6779742 -656.57341199 343.40666921 -653.06445312 341.13574219 C-651.64779519 340.21906203 -650.23112853 339.30239535 -648.81445312 338.38574219 C-647.76257813 337.70511719 -647.76257813 337.70511719 -646.68945312 337.01074219 C-640.31445312 332.88574218 -640.31445312 332.88574218 -638.19018555 331.51123047 C-636.77106001 330.59296318 -635.35195199 329.67466884 -633.93286133 328.75634766 C-630.42895715 326.48895018 -626.92476718 324.22199718 -623.41992188 321.95605469 C-622.03057613 321.05765249 -620.64125338 320.15921473 -619.25195312 319.26074219 C-618.55263672 318.80852295 -617.85332031 318.35630371 -617.1328125 317.89038086 C-613.394076 315.47132326 -609.65864623 313.04732124 -605.92773438 310.61621094 C-596.72856853 304.62292824 -587.50552841 298.66973762 -578.25195312 292.76074219 C-568.08472029 286.26726532 -557.96689888 279.70144832 -547.86914062 273.10058594 C-541.12547806 268.69238569 -534.3602946 264.31773304 -527.59277344 259.94628906 C-524.08212517 257.6779742 -520.57341199 255.40666921 -517.06445312 253.13574219 C-515.64779519 252.21906203 -514.23112853 251.30239535 -512.81445312 250.38574219 C-512.11320313 249.93199219 -511.41195312 249.47824219 -510.68945312 249.01074219 C-440.56445313 203.63574219 -370.43945313 158.26074219 -283.31445312 101.88574219 C-282.61384766 101.43239502 -281.91324219 100.97904785 -281.19140625 100.51196289 C-279.76828152 99.5911463 -278.34510405 98.67041121 -276.921875 97.74975586 C-273.47858941 95.52223309 -270.03609184 93.2935182 -266.59570312 91.06152344 C-258.2306548 85.63742418 -249.84134035 80.25261476 -241.43945312 74.88574219 C-231.21038681 68.34964225 -221.02970466 61.74253853 -210.86914062 55.10058594 C-204.12547806 50.69238569 -197.3602946 46.31773304 -190.59277344 41.94628906 C-187.08212518 39.67797421 -183.5734013 37.4066857 -180.06445312 35.13574219 C-175.85006567 32.40847348 -171.63549297 29.68149357 -167.41992188 26.95605469 C-166.03057613 26.05765249 -164.64125338 25.15921473 -163.25195312 24.26074219 C-162.55263672 23.80852295 -161.85332031 23.35630371 -161.1328125 22.89038086 C-156.59017968 19.9511819 -152.05414206 17.00203248 -147.52124023 14.04785156 C-144.14239167 11.84788974 -140.75933868 9.65443805 -137.37597656 7.46142578 C-135.40351857 6.18059556 -133.43297857 4.89680912 -131.46386719 3.61083984 C-85.72203426 -26.24630284 -46.00404292 -31.0678971 0 0 Z " fill="#000000" transform="translate(1062.564453125,42.3642578125)"/>
<path d="M0 0 C13.17330414 11.53712942 19.27061014 24.66173121 25.453125 41.1484375 C25.948125 15.9034375 25.948125 15.9034375 26.453125 -9.8515625 C69.023125 -9.8515625 111.593125 -9.8515625 155.453125 -9.8515625 C155.5193237 48.74040114 155.5746983 107.33233587 155.60632099 165.92432607 C155.61006267 172.84953451 155.61395238 179.77474286 155.61791992 186.69995117 C155.6183122 187.38905588 155.61870448 188.07816059 155.61910864 188.78814726 C155.63186982 211.08373236 155.65438657 233.37929451 155.68201666 255.67486573 C155.71118811 279.2572923 155.72912821 302.83969849 155.73539048 326.42214388 C155.7394965 340.53464063 155.75244146 354.64707144 155.7768744 368.75954788 C155.79279375 378.45121222 155.79751139 388.14284271 155.79362913 397.83451916 C155.7917172 403.41702323 155.79454348 408.99941244 155.81074142 414.58189583 C155.92863351 457.34998759 155.92863351 457.34998759 152.453125 476.1484375 C152.1482653 477.93805887 151.84502487 479.72795677 151.54332256 481.51811314 C146.03057694 514.1010634 130.51467623 545.59021823 103.46484375 565.453125 C68.33728174 589.82225835 25.10759741 594.58929919 -16.484375 594.3984375 C-18.31278427 594.39328629 -18.31278427 594.39328629 -20.1781311 594.38803101 C-60.81551545 594.25359495 -101.21146795 592.20892901 -137.546875 572.1484375 C-138.58972656 571.58382812 -139.63257813 571.01921875 -140.70703125 570.4375 C-150.18079658 565.12020879 -158.88768338 558.68527823 -167.546875 552.1484375 C-166.24423806 547.78990871 -164.55745065 544.21144541 -162.16015625 540.3515625 C-161.47622803 539.24047119 -160.7922998 538.12937988 -160.08764648 536.98461914 C-159.54296219 536.10823288 -159.54296219 536.10823288 -158.98727417 535.21414185 C-157.05311888 532.10051763 -155.13955864 528.97431126 -153.2265625 525.84765625 C-152.63955818 524.8890696 -152.63955818 524.8890696 -152.04069519 523.91111755 C-148.07261378 517.41007657 -144.26703515 510.82140216 -140.484375 504.2109375 C-135.64718213 495.76290013 -130.75760946 487.37240818 -125.546875 479.1484375 C-120.40022693 479.71007568 -116.48017949 482.23618503 -112.046875 484.7109375 C-89.26370797 496.99935695 -64.79622935 504.33668097 -38.84130859 504.33374023 C-36.6843689 504.33592485 -34.52794319 504.35411852 -32.37109375 504.37304688 C-17.17806155 504.43855915 -2.70885526 501.21324717 8.65234375 490.265625 C16.18442229 481.41012269 20.67181364 471.33964823 23.453125 460.1484375 C23.64148926 459.41101318 23.82985352 458.67358887 24.02392578 457.91381836 C26.04887329 448.68023612 25.67350117 439.35729024 25.578125 429.9609375 C25.56807261 428.22852081 25.55895076 426.49609846 25.55078125 424.76367188 C25.52895249 420.55845164 25.49454799 416.3535085 25.453125 412.1484375 C25.06495605 413.09090332 24.67678711 414.03336914 24.27685547 415.00439453 C23.7499884 416.26347776 23.22278965 417.52242223 22.6953125 418.78125 C22.44160889 419.3997583 22.18790527 420.0182666 21.92651367 420.65551758 C15.02749548 437.02588679 1.62630673 448.42648451 -14.421875 455.4609375 C-20.90376609 457.86242502 -27.75890792 458.96431435 -34.546875 460.1484375 C-35.953927 460.40971436 -35.953927 460.40971436 -37.3894043 460.67626953 C-42.77776778 461.48204507 -48.17068282 461.33296391 -53.609375 461.3359375 C-54.76115234 461.34818359 -55.91292969 461.36042969 -57.09960938 461.37304688 C-68.2691226 461.39184022 -78.96770948 460.13290339 -89.546875 456.4609375 C-90.30742188 456.20038574 -91.06796875 455.93983398 -91.8515625 455.67138672 C-117.67430391 446.50409615 -133.23478601 427.82372662 -144.953125 403.66796875 C-156.45697551 378.2636322 -159.02465445 350.42024881 -158.90332031 322.86352539 C-158.90411343 320.50878829 -158.90621754 318.15405133 -158.90951538 315.79931641 C-158.91459849 309.47124531 -158.90121833 303.14334004 -158.88398838 296.81529546 C-158.87036631 290.83777754 -158.87020001 284.86026366 -158.86961183 278.88273364 C-158.86793236 267.04410754 -158.85222002 255.20554331 -158.828125 243.36694336 C-158.8048386 231.91706834 -158.79069386 220.4672325 -158.78710938 209.01733398 C-158.78688661 208.31090089 -158.78666384 207.60446779 -158.78643432 206.87662763 C-158.78599167 205.45317188 -158.78554965 204.02971613 -158.78510825 202.60626039 C-158.78488869 201.90384057 -158.78466912 201.20142076 -158.7844429 200.47771549 C-158.78422692 199.77690141 -158.78401093 199.07608733 -158.7837884 198.35403645 C-158.77985314 186.72070105 -158.76716408 175.08737316 -158.75409603 163.45404506 C-158.75001339 159.50903202 -158.74707964 155.56401935 -158.74430084 151.6190052 C-158.73938066 145.40949938 -158.729132 139.20002307 -158.71486282 132.99053192 C-158.71037037 130.72107905 -158.70750847 128.45162222 -158.70645523 126.18216515 C-158.6824181 83.85614835 -153.85019726 37.58905504 -122.546875 6.1484375 C-121.91265625 5.47941406 -121.2784375 4.81039063 -120.625 4.12109375 C-112.82110216 -3.49288622 -101.22324031 -8.59877572 -90.7578125 -11.28125 C-88.43409462 -11.84752188 -88.43409462 -11.84752188 -85.78686523 -12.81811523 C-58.70741172 -21.45554472 -22.73208177 -17.76369264 0 0 Z " fill="#4169E0" transform="translate(1662.546875,1327.8515625)"/>
<path d="M0 0 C1.18916016 1.04607422 1.18916016 1.04607422 2.40234375 2.11328125 C3.54509766 3.11294922 3.54509766 3.11294922 4.7109375 4.1328125 C26.46266241 24.4520148 35.38247387 57.73146404 36.62722492 86.53660703 C37.00902592 98.14154447 36.91515065 109.75909355 36.86660624 121.36840737 C36.84911982 126.62704754 36.8551927 131.88567177 36.85821533 137.14433289 C36.86029948 146.22653019 36.84788939 155.30861139 36.82526398 164.3907795 C36.79257413 177.52159458 36.78231971 190.65235426 36.77731201 203.78320562 C36.76858581 225.09386476 36.74204331 246.4044622 36.70410156 267.71508789 C36.66731189 288.40030613 36.63903429 309.08550754 36.62207031 329.77075195 C36.62101942 331.04859196 36.61996852 332.32643198 36.61888579 333.64299441 C36.61366514 340.05437908 36.60861043 346.46576388 36.60363817 352.87714875 C36.56225955 405.95591441 36.48856702 459.03456578 36.40234375 512.11328125 C-4.51765625 512.11328125 -45.43765625 512.11328125 -87.59765625 512.11328125 C-87.60700195 499.85212158 -87.61634766 487.59096191 -87.62597656 474.95825195 C-87.65869298 435.71512084 -87.71098483 396.47203761 -87.7755772 357.22894653 C-87.78559451 351.13204206 -87.79543866 345.03513734 -87.80517578 338.93823242 C-87.80711715 337.72446225 -87.80905853 336.51069207 -87.81105873 335.26014098 C-87.84206922 315.61391889 -87.85905673 295.96770849 -87.87085047 276.32146654 C-87.88326694 256.15855921 -87.9107796 235.99571311 -87.95226932 215.83284444 C-87.97739042 203.39398797 -87.99077453 190.95523308 -87.98908582 178.51635089 C-87.98905604 169.98341742 -88.00370645 161.45058731 -88.02982053 152.91769413 C-88.04444991 147.99664646 -88.05268356 143.07581077 -88.04345894 138.1547451 C-88.03514527 133.64318791 -88.04539999 129.1320558 -88.06999287 124.6205615 C-88.07565605 122.99450915 -88.07469294 121.36841623 -88.0661687 119.74237636 C-88.00249304 106.44963869 -89.52148468 93.5441053 -98.59765625 83.11328125 C-104.82200946 78.05599427 -110.83581045 76.61570893 -118.72265625 76.80859375 C-125.35366109 77.51133611 -130.74899503 79.796969 -135.47265625 84.55078125 C-145.79161256 97.70381711 -146.05173842 118.87767817 -145.99638367 134.99511719 C-146.00183759 136.63410209 -146.00859509 138.27308308 -146.01652557 139.91205788 C-146.0343887 144.36817522 -146.03401396 148.82412454 -146.0303961 153.28026915 C-146.02976815 158.10350905 -146.04643048 162.92669454 -146.06091309 167.74990845 C-146.08362864 176.09066175 -146.09557199 184.43137348 -146.10004234 192.77215576 C-146.1065214 204.83127628 -146.12948956 216.89032189 -146.15638564 228.94941211 C-146.19958717 248.51802199 -146.22959175 268.08662869 -146.2512207 287.65527344 C-146.27225031 306.6559403 -146.29954268 325.65658128 -146.33520508 344.65722656 C-146.3374039 345.82989924 -146.33960273 347.00257193 -146.34186818 348.21078014 C-146.35293833 354.09417426 -146.36413105 359.97756814 -146.37538469 365.86096191 C-146.46847582 414.61171937 -146.53767218 463.36246961 -146.59765625 512.11328125 C-188.50765625 512.11328125 -230.41765625 512.11328125 -273.59765625 512.11328125 C-273.59765625 337.87328125 -273.59765625 163.63328125 -273.59765625 -15.88671875 C-231.68765625 -15.88671875 -189.77765625 -15.88671875 -146.59765625 -15.88671875 C-146.26765625 3.91328125 -145.93765625 23.71328125 -145.59765625 44.11328125 C-143.61765625 38.83328125 -141.63765625 33.55328125 -139.59765625 28.11328125 C-138.19368192 25.20401486 -136.84925566 22.4948401 -135.22265625 19.73828125 C-134.6503125 18.7481604 -134.6503125 18.7481604 -134.06640625 17.73803711 C-130.73480362 12.10147845 -126.99243144 6.97558571 -122.59765625 2.11328125 C-121.55158203 0.94539063 -121.55158203 0.94539063 -120.484375 -0.24609375 C-90.56129129 -31.92310599 -31.70123205 -26.59297665 0 0 Z " fill="#4169E1" transform="translate(1417.59765625,1332.88671875)"/>
<path d="M0 0 C194.85910653 0 194.85910653 0 218 14 C218 14.66 218 15.32 218 16 C218.55171875 16.23074219 219.1034375 16.46148438 219.671875 16.69921875 C234.8993265 25.20717404 243.72344108 44.60706918 248.375 60.55859375 C254.04437047 81.27911447 256.17101624 102.81009014 256.1328125 124.24609375 C256.13424759 126.06645897 256.13424759 126.06645897 256.13571167 127.92359924 C256.1363872 130.47063245 256.13457705 133.01766744 256.13037109 135.56469727 C256.12501868 139.42403094 256.13033523 143.28324802 256.13671875 147.14257812 C256.13605777 149.63541692 256.13477619 152.12825564 256.1328125 154.62109375 C256.13483673 155.75485947 256.13686096 156.88862518 256.13894653 158.05674744 C256.10344561 170.42473666 255.35694753 182.34666253 252.375 194.375 C252.10993652 195.45209229 251.84487305 196.52918457 251.57177734 197.63891602 C248.15057003 210.97165018 243.68468083 222.88961892 234 233 C233.29617188 233.75539063 232.59234375 234.51078125 231.8671875 235.2890625 C224.66047199 242.39805983 215.99216532 246.58737131 207 251 C208.25103516 251.43699219 208.25103516 251.43699219 209.52734375 251.8828125 C224.34553664 257.28050476 234.76765033 264.76656766 242 279 C246.13342673 287.89524604 247.56414097 297.37877509 249 307 C249.16904343 308.03058533 249.33808685 309.06117065 249.51225281 310.12298584 C250.02202375 314.17506282 250.1406191 318.13804504 250.12939453 322.21289062 C250.13112419 323.01320332 250.13285385 323.81351601 250.13463593 324.6380806 C250.13899794 327.31082459 250.13603383 329.98350513 250.1328125 332.65625 C250.13383137 334.58628356 250.13517268 336.51631697 250.1368103 338.4463501 C250.13953298 343.70007924 250.13499623 348.95377921 250.12857056 354.20750427 C250.12500191 357.49824105 250.12338023 360.78897344 250.12231445 364.07971191 C250.11148225 391.16330365 249.99539842 418.24543649 249.7734375 445.328125 C249.76384632 446.49857109 249.75425514 447.66901718 249.74437332 448.87493134 C249.53256375 474.25029438 249.25761343 499.62507725 249 525 C215.01 525 181.02 525 146 525 C145.96261719 509.45132812 145.92523438 493.90265625 145.88671875 477.8828125 C145.85644692 468.03905355 145.82542614 458.19530642 145.79101562 448.3515625 C145.73652399 432.72331814 145.68511121 417.09510664 145.65356445 401.46679688 C145.63057513 390.08482514 145.59716647 378.70293959 145.55129844 367.32103622 C145.52737902 361.29561645 145.50864177 355.27028197 145.50238609 349.24481583 C145.49632956 343.5698409 145.47630871 337.89508415 145.44572449 332.22019005 C145.43695346 330.14098184 145.43321974 328.06174511 145.43499184 325.98251915 C145.43665202 323.13499755 145.41988189 320.28813521 145.39872742 317.44070435 C145.40357499 316.62549698 145.40842257 315.81028961 145.41341704 314.97037899 C145.31558358 306.94419746 143.5875593 298.01737155 138 292 C127.9618631 286.52794704 117.26518183 285.86655245 106 285 C106 364.2 106 443.4 106 525 C71.02 525 36.04 525 0 525 C0 351.75 0 178.5 0 0 Z " fill="#D2042D" transform="translate(174,597)"/>
<path d="M0 0 C192.06 0 384.12 0 582 0 C580.03124688 1.96875312 578.84729487 2.63351755 576.34375 3.70703125 C575.58223633 4.03920654 574.82072266 4.37138184 574.03613281 4.71362305 C572.78074707 5.25756714 572.78074707 5.25756714 571.5 5.8125 C550.25733591 15.22712747 529.85287553 25.93503803 510 38 C508.97567871 38.62197266 507.95135742 39.24394531 506.89599609 39.88476562 C493.92133048 47.80014038 481.26665824 56.02742824 469 65 C468.22817383 65.56074219 467.45634766 66.12148438 466.66113281 66.69921875 C448.41831422 79.95874033 430.85407936 93.9437688 413.68701172 108.56738281 C412.01649597 109.98599155 410.33898958 111.39593802 408.66015625 112.8046875 C399.82578914 120.25239768 391.4198579 128.10459965 383.04785156 136.06542969 C381.18848421 137.8219422 379.31487803 139.56035441 377.4296875 141.2890625 C368.17787715 149.78501446 359.30019597 158.62791294 350.47436523 167.5625 C345.73209165 172.35217026 340.95943879 177.03849383 335.83032227 181.41918945 C332.6866444 184.13431739 329.70170648 187.01802159 326.6875 189.875 C321.4605134 194.79493773 316.14137138 199.45374682 310.53125 203.93359375 C307.99861847 206.00112782 305.5926884 208.16113341 303.1875 210.375 C298.21929677 214.89653512 292.99196423 219.01152206 287.6875 223.125 C284.63939742 225.49001828 281.63472105 227.90380154 278.63867188 230.33422852 C244.91857504 257.63037643 208.18488302 281.45279314 170 302 C169.04335449 302.51788086 168.08670898 303.03576172 167.10107422 303.56933594 C120.70760497 328.56446499 70.34529286 348.2019577 18.5625 358.3125 C17.86907501 358.44805298 17.17565002 358.58360596 16.46121216 358.7232666 C4.73101756 361 4.73101756 361 0 361 C0 241.87 0 122.74 0 0 Z " fill="#D2042D" transform="translate(1114,677)"/>
<path d="M0 0 C0 119.13 0 238.26 0 361 C-192.06 361 -384.12 361 -582 361 C-579.10751162 358.83063372 -577.24171197 357.51745939 -574.078125 356.16015625 C-573.31274414 355.82604736 -572.54736328 355.49193848 -571.75878906 355.14770508 C-570.93088867 354.7895874 -570.10298828 354.43146973 -569.25 354.0625 C-548.75507702 344.98440154 -529.18081644 334.58942158 -510 323 C-509.06462402 322.43603516 -508.12924805 321.87207031 -507.16552734 321.29101562 C-495.5072805 314.23584041 -484.10959241 306.8905968 -473 299 C-472.29311035 298.50032715 -471.5862207 298.0006543 -470.85791016 297.48583984 C-445.00280767 279.17109594 -420.12959847 259.24436746 -396.9140625 237.66796875 C-394.65999297 235.6042563 -392.38620319 233.58078348 -390.08203125 231.57421875 C-386.34976436 228.31881356 -382.68119742 225.0060865 -379.0625 221.625 C-378.40572266 221.01140625 -377.74894531 220.3978125 -377.07226562 219.765625 C-369.12929752 212.27469573 -361.45549431 204.50929175 -353.78149414 196.74462891 C-348.94574797 191.86245738 -344.09061125 187.06931291 -338.859375 182.60546875 C-335.47179158 179.6804755 -332.24867679 176.57735985 -329 173.5 C-323.76726553 168.54321052 -318.45247115 163.7141447 -313 159 C-312.4337793 158.50628906 -311.86755859 158.01257813 -311.28417969 157.50390625 C-304.45761485 151.55358705 -297.53905963 145.7623046 -290.38330078 140.21142578 C-286.61763547 137.28697075 -282.91491175 134.29842825 -279.23803711 131.26318359 C-270.82890358 124.33388408 -262.14135891 117.88354713 -253.24804688 111.59082031 C-251.03104569 110.02196934 -248.81976702 108.44533221 -246.609375 106.8671875 C-237.52448658 100.39706954 -228.34949587 94.08188964 -219 88 C-218.31309082 87.55221191 -217.62618164 87.10442383 -216.91845703 86.64306641 C-156.63568237 47.51977683 -90.17691526 17.53639688 -19.6875 2.6875 C-18.4281665 2.42042236 -17.16883301 2.15334473 -15.87133789 1.87817383 C-14.68016357 1.63349365 -13.48898926 1.38881348 -12.26171875 1.13671875 C-10.66783325 0.80740356 -10.66783325 0.80740356 -9.04174805 0.47143555 C-6 0 -6 0 0 0 Z " fill="#4169E0" transform="translate(1842,760)"/>
<path d="M0 0 C41.58 0 83.16 0 126 0 C130.64191773 44.09821844 130.64191773 44.09821844 132.80244446 66.12245178 C133.22554976 70.43245957 133.65039741 74.74229483 134.07531738 79.05212402 C134.75691921 85.96774582 135.43716163 92.88350061 136.11686718 99.79930902 C136.66181921 105.34357998 137.20745512 110.8877833 137.75350952 116.4319458 C140.6620936 145.96368378 143.56960393 175.49552766 146.4375 205.03125 C146.52309362 205.91264774 146.60868725 206.79404549 146.69687462 207.70215225 C147.44591769 215.41768194 148.19346232 223.13335274 148.93605232 230.84950638 C149.12781223 232.84114989 149.32006245 234.83274617 149.5123291 236.82434082 C149.73483737 239.12999081 149.956462 241.43572638 150.17687988 243.74157715 C150.32002625 245.22373718 150.32002625 245.22373718 150.46606445 246.73583984 C150.58592461 247.98534927 150.58592461 247.98534927 150.70820618 249.26010132 C150.9414286 251.45002362 151.21556122 253.63557551 151.50332642 255.81900024 C152.02150747 259.92365281 152.28398556 264.0289703 152.48071289 268.16015625 C152.5198732 268.93185654 152.55903351 269.70355682 152.59938049 270.49864197 C152.72662324 273.01979583 152.84967522 275.54113498 152.97265625 278.0625 C153.060648 279.82227864 153.14890381 281.5820441 153.2374115 283.34179688 C153.46854367 287.95130835 153.69610971 292.56098909 153.9229126 297.17071533 C154.15542309 301.88344977 154.39133474 306.59601385 154.62695312 311.30859375 C155.08794871 320.53889968 155.54517392 329.76938816 156 339 C156.04567108 338.33110748 156.09134216 337.66221497 156.13839722 336.97305298 C156.57815284 330.53540383 157.01901121 324.09783114 157.46098137 317.66033363 C157.68793297 314.35416038 157.91439835 311.04795565 158.14013672 307.74169922 C158.74896192 298.82700171 159.36883293 289.91314368 160 281 C160.11748093 279.32818161 160.11748093 279.32818161 160.23733521 277.62258911 C161.46550986 260.31213065 163.13509818 243.05883847 164.96372986 225.80265045 C165.19141315 223.65051164 165.41762247 221.49822234 165.64343262 219.34588623 C168.14740128 195.49280799 170.81246116 171.65994707 173.60229492 147.83862305 C175.27717225 133.5129029 176.83345162 119.17972036 178.29882812 104.83105469 C179.27928974 95.23663298 180.32563104 85.64958314 181.375 76.0625 C181.69505212 73.13216726 182.01490085 70.20181238 182.3347168 67.27145386 C182.55418405 65.26064009 182.77374776 63.24983686 182.9934082 61.23904419 C183.80157399 53.83583819 184.60126536 46.4317407 185.3984375 39.02734375 C185.73890282 35.87139492 186.07952985 32.7154636 186.42022705 29.55953979 C186.63855134 27.53398905 186.85629242 25.50837534 187.07342529 23.48269653 C187.37550389 20.66537578 187.67971495 17.8482926 187.984375 15.03125 C188.07270599 14.20209579 188.16103699 13.37294159 188.25204468 12.5186615 C188.33612579 11.74486649 188.42020691 10.97107147 188.50683594 10.17382812 C188.61412018 9.17615417 188.61412018 9.17615417 188.72357178 8.1583252 C189.07324608 5.42810156 189.5474877 2.71507382 190 0 C231.58 0 273.16 0 316 0 C312.66666667 24.44444444 312.66666667 24.44444444 310.74609375 34.6875 C310.08938653 38.31058868 309.57504211 41.94708086 309.06640625 45.59375 C307.86331566 54.14703449 306.35948139 62.64002343 304.85546875 71.14453125 C304.64535156 72.34464844 304.43523437 73.54476563 304.21875 74.78125 C304.03248047 75.83376953 303.84621094 76.88628906 303.65429688 77.97070312 C303.06399183 81.469542 302.57468219 84.98033474 302.08203125 88.49414062 C301.09866196 95.44014723 299.97988415 102.35799657 298.81251526 109.27523804 C298.45731926 111.38024218 298.10433404 113.48560776 297.75183105 115.59106445 C296.87689649 120.81432197 295.99837286 126.03697445 295.11993408 131.25964355 C294.37370868 135.69712041 293.62890737 140.13483204 292.88587952 144.57284546 C292.54276017 146.61886491 292.19764776 148.66454102 291.85241699 150.71020508 C290.83242583 156.79860793 289.85749519 162.8864525 289 169 C288.04928496 175.77816232 286.95146794 182.52637676 285.81251526 189.27523804 C285.45731926 191.38024218 285.10433404 193.48560776 284.75183105 195.59106445 C283.87689649 200.81432197 282.99837286 206.03697445 282.11993408 211.25964355 C281.37370868 215.69712041 280.62890737 220.13483204 279.88587952 224.57284546 C279.54276017 226.61886491 279.19764776 228.66454102 278.85241699 230.71020508 C277.8341812 236.78812997 276.86054989 242.86543109 276.00488281 248.96850586 C274.93334101 256.60713134 273.67069466 264.21069208 272.390625 271.81640625 C272.14038825 273.31109392 271.89032123 274.80581001 271.64041138 276.30055237 C271.11518904 279.44052189 270.58906888 282.58033895 270.06219482 285.72003174 C268.83567237 293.03014257 267.61484481 300.34120519 266.39400864 307.65226746 C266.12642894 309.25468208 265.8588026 310.85708892 265.5911293 312.45948792 C263.49466196 325.0106944 261.41297351 337.56414199 259.375 350.125 C259.26111938 350.82384308 259.14723877 351.52268616 259.02990723 352.2427063 C257.98671567 358.65006915 256.98210454 365.05847929 256.08862305 371.48852539 C255.10952502 378.3705518 253.99976619 385.22531426 252.8401947 392.07902527 C252.48208758 394.19608293 252.12622568 396.31350844 251.77087402 398.43103027 C251.25918681 401.47949034 250.74680784 404.52783276 250.2338562 407.57608032 C244.9582366 438.93969342 239.86874104 470.32732202 234.97631836 501.75317383 C233.66079711 510.17033866 232.32869916 518.58490532 231 527 C182.49 527 133.98 527 84 527 C81.19435384 511.84951074 78.46388066 496.95943818 76.38458252 481.74267578 C75.01551886 471.97910735 73.4505709 462.24205589 71.9375 452.5 C71.74668854 451.26919708 71.55587708 450.03839417 71.35928345 448.77029419 C67.29258035 422.56956497 63.00601865 396.40677185 58.68357849 370.24716187 C56.905742 359.46816674 55.1767369 348.6815765 53.46060181 337.89260864 C52.64351341 332.76124156 51.82143483 327.63067274 51 322.5 C50.666646 320.41666997 50.33331022 318.33333703 50 316.25 C49.7525 314.703125 49.7525 314.703125 49.5 313.125 C48.75 308.4375 48.75 308.4375 48 303.75 C47.84423492 302.77653625 47.68846985 301.80307251 47.52798462 300.80010986 C47.19503237 298.71902838 46.86215643 296.63793468 46.52938843 294.55682373 C45.71904112 289.48970412 44.90759537 284.42276891 44.09228516 279.35644531 C42.28970402 268.14320756 40.51422526 256.92612838 38.7734375 245.703125 C34.4906718 218.09791429 30.14815244 190.50444881 25.625 162.9375 C25.42026062 161.68787476 25.21552124 160.43824951 25.00457764 159.15075684 C22.84222415 145.96622828 20.65019621 132.78835972 18.3130188 119.63352966 C17.2782572 113.77012077 16.37670032 107.89797159 15.5625 102 C15.43166016 101.0620459 15.30082031 100.1240918 15.16601562 99.15771484 C15.05966797 98.39152832 14.95332031 97.6253418 14.84375 96.8359375 C13.83778715 89.75186742 12.70356041 82.68836151 11.5625 75.625 C11.45497406 74.95905823 11.34744812 74.29311646 11.23666382 73.60699463 C9.84651655 65.01816347 8.39243368 56.44225466 6.875 47.875 C4.06542656 31.97641526 2.00282026 16.02256207 0 0 Z " fill="#4169E0" transform="translate(620,1318)"/>
<path d="M0 0 C0.83721588 -0.00133942 1.67443176 -0.00267883 2.53701782 -0.00405884 C36.77020365 0.00778528 72.76617314 5.63289279 98.16796875 30.5703125 C99.04066406 31.45460938 99.91335938 32.33890625 100.8125 33.25 C101.55113281 33.98992188 102.28976562 34.72984375 103.05078125 35.4921875 C115.13951734 48.30859509 122.52241833 64.80112241 126.625 81.75 C126.81989014 82.55501953 127.01478027 83.36003906 127.21557617 84.18945312 C131.00671288 101.07162384 131.09621618 117.73106947 131.04296875 134.94921875 C131.04177381 137.51837643 131.04132445 140.08753456 131.0415802 142.6566925 C131.04002459 148.01472964 131.03205541 153.37269453 131.01831055 158.73071289 C131.00256808 164.88946237 130.99731372 171.04814931 130.9980461 177.20691746 C130.99866028 183.18272723 130.99340977 189.15851206 130.98525429 195.1343174 C130.98209215 197.65508721 130.98010601 200.1758588 130.97936058 202.69663048 C130.97717217 206.22706491 130.96837551 209.75742384 130.95776367 213.2878418 C130.95844345 214.82108345 130.95844345 214.82108345 130.95913696 216.38529968 C130.92701428 223.76039468 130.38212896 230.84482347 129.8125 238.25 C78.6625 238.25 27.5125 238.25 -25.1875 238.25 C-25.084375 254.729375 -24.98125 271.20875 -24.875 288.1875 C-24.85010498 293.35784912 -24.82520996 298.52819824 -24.79956055 303.85522461 C-24.7629228 308.55983805 -24.7629228 308.55983805 -24.7224884 313.26441956 C-24.70652012 315.33197185 -24.69611053 317.39957232 -24.69038391 319.46717834 C-24.69567535 343.59979787 -24.69567535 343.59979787 -17.1875 366.25 C-16.6925 367.735 -16.6925 367.735 -16.1875 369.25 C-13.8444191 370.37085312 -13.8444191 370.37085312 -11.1875 371.25 C-10.60097656 371.59289063 -10.01445313 371.93578125 -9.41015625 372.2890625 C-3.66738317 374.77187828 4.4354407 374.02046378 10.3125 372.125 C17.38401605 368.33668783 19.42970008 363.40976863 22.015625 356.12890625 C23.55391838 350.57144438 23.94179255 345.05060617 24.01782227 339.30493164 C24.02785499 338.63997146 24.03788771 337.97501127 24.04822445 337.28990078 C24.07930205 335.16335325 24.10425192 333.03678687 24.12890625 330.91015625 C24.15688293 328.94508118 24.15688293 328.94508118 24.1854248 326.94030762 C24.25352709 322.06443786 24.31380025 317.18846128 24.375 312.3125 C24.519375 301.401875 24.66375 290.49125 24.8125 279.25 C59.7925 279.25 94.7725 279.25 130.8125 279.25 C130.8125 330.85547504 130.8125 330.85547504 128.8125 346.25 C128.68367432 347.40918945 128.68367432 347.40918945 128.55224609 348.59179688 C126.27757363 369.03386276 120.12210423 389.4216743 109.8125 407.25 C108.93271484 408.78140625 108.93271484 408.78140625 108.03515625 410.34375 C93.86201299 433.7406849 70.08734265 445.98234191 44.3046875 452.44140625 C28.85797697 456.01799359 13.55154351 456.48090584 -2.24072266 456.54516602 C-4.19099205 456.55663819 -6.14123124 456.57701365 -8.09130859 456.60668945 C-40.87026873 457.102501 -72.55201531 448.93909074 -96.875 426 C-126.18189634 395.37059029 -132.70704744 348.08024378 -132.57568359 307.56152344 C-132.57976347 305.40179176 -132.58511317 303.24206217 -132.59161377 301.08233643 C-132.6051218 295.29329762 -132.60005895 289.50442179 -132.59047651 283.71538067 C-132.58279707 277.61446939 -132.58994787 271.51357061 -132.59463501 265.41265869 C-132.60006706 255.17840102 -132.59296663 244.94420866 -132.57861328 234.70996094 C-132.56227426 222.92473749 -132.56759479 211.1396697 -132.5840925 199.35444999 C-132.59775956 189.17881314 -132.59960214 179.00322281 -132.59177649 168.82757974 C-132.5871308 162.77481555 -132.58638905 156.72212426 -132.59638596 150.66936493 C-132.60513048 144.97930961 -132.59889874 139.28945279 -132.58170319 133.59941864 C-132.57777872 131.52718432 -132.57880183 129.45493293 -132.58549118 127.38270569 C-132.68685284 92.75849778 -124.71214613 59.78553093 -99.875 34.4375 C-83.23781603 18.08846922 -62.45102553 8.72919994 -40 3.5 C-38.64636353 3.18349487 -38.64636353 3.18349487 -37.26538086 2.8605957 C-24.91632933 0.12247919 -12.58927644 0.01189986 0 0 Z " fill="#D2042D" transform="translate(592.1875,669.75)"/>
<path d="M0 0 C40.92 0 81.84 0 124 0 C124 169.62 124 339.24 124 514 C166.24 514 208.48 514 252 514 C252 548.65 252 583.3 252 619 C168.84 619 85.68 619 0 619 C0 414.73 0 210.46 0 0 Z " fill="#4169E0" transform="translate(178,1226)"/>
<path d="M0 0 C0.7913887 -0.00692368 1.5827774 -0.01384735 2.39814758 -0.02098083 C4.95428436 -0.03823863 7.51021387 -0.04457379 10.06640625 -0.046875 C10.93728882 -0.04821442 11.80817139 -0.04955383 12.70544434 -0.05093384 C49.5102476 -0.03865597 84.66265986 6.60571784 111.62890625 33.203125 C112.27085937 33.76128906 112.9128125 34.31945312 113.57421875 34.89453125 C132.63418037 51.87119474 139.03453112 80.61720585 142.44140625 104.640625 C142.62751465 105.88694702 142.62751465 105.88694702 142.81738281 107.15844727 C144.14266743 117.57991472 143.62890625 127.51006036 143.62890625 138.203125 C106.99890625 138.203125 70.36890625 138.203125 32.62890625 138.203125 C32.29890625 129.953125 31.96890625 121.703125 31.62890625 113.203125 C30.72187487 104.9513204 30.72187487 104.9513204 28.31640625 97.453125 C27.70345703 95.85210938 27.70345703 95.85210938 27.078125 94.21875 C25.07631966 90.05326826 22.84359348 87.06229402 19.06640625 84.390625 C12.24172424 82.03300758 4.97630412 82.32397235 -1.65625 85.2265625 C-6.62435926 88.0557819 -9.2370859 92.0359487 -11.37109375 97.203125 C-11.81409972 100.06822955 -11.8480143 102.87037024 -11.80859375 105.765625 C-11.79957031 106.558479 -11.79054688 107.35133301 -11.78125 108.16821289 C-11.43056908 120.22652236 -7.81652322 130.41937714 0.62890625 139.203125 C4.98426953 143.00273252 9.69272762 146.33021538 14.41845703 149.6484375 C17.36971366 151.72416118 20.28846412 153.84345252 23.20947266 155.96142578 C25.46678591 157.59650874 27.72924948 159.2242758 29.9921875 160.8515625 C35.5334617 164.84597095 41.02557081 168.90625053 46.51611328 172.9699707 C51.16536887 176.4056934 55.84430724 179.79415492 60.55224609 183.14892578 C74.32764201 192.98509914 87.36437314 203.53203704 99.62890625 215.203125 C100.40492188 215.92628906 101.1809375 216.64945313 101.98046875 217.39453125 C130.29773283 244.56109379 144.71355534 280.73445908 145.85546875 319.6171875 C146.50670259 356.03901569 139.52184958 391.43446258 114.62890625 419.203125 C114.01789063 419.89664062 113.406875 420.59015625 112.77734375 421.3046875 C95.98144101 439.24414107 70.51116279 450.14437881 46.62890625 454.203125 C45.80994873 454.37158936 44.99099121 454.54005371 44.1472168 454.71362305 C33.81742919 456.6290747 23.49369362 456.54047167 13.01928711 456.51879883 C9.83347219 456.51564191 6.64859121 456.53915614 3.46289062 456.56445312 C-8.21404493 456.60077675 -18.99665604 455.91333784 -30.37109375 453.203125 C-31.25176514 453.02031982 -32.13243652 452.83751465 -33.03979492 452.64916992 C-60.8903521 446.85199512 -85.54614544 431.66034747 -101.28125 407.73046875 C-123.8878325 370.53763441 -121.37109375 329.88600584 -121.37109375 287.203125 C-85.73109375 287.203125 -50.09109375 287.203125 -13.37109375 287.203125 C-13.12109375 317.453125 -13.12109375 317.453125 -13.07324219 326.93066406 C-13.04384448 329.4433777 -13.01301374 331.95607515 -12.98046875 334.46875 C-12.97877686 336.38469971 -12.97877686 336.38469971 -12.97705078 338.33935547 C-12.83141696 347.57822332 -11.7213175 357.06667378 -6.12109375 364.765625 C0.61010084 370.73191111 7.59447843 370.54918571 16.140625 370.6015625 C19.8065477 370.18283449 21.6235445 369.25002003 24.62890625 367.203125 C25.28890625 367.203125 25.94890625 367.203125 26.62890625 367.203125 C28.11109737 364.31185532 29.44812558 361.39246236 30.69140625 358.390625 C31.03300781 357.57980469 31.37460937 356.76898437 31.7265625 355.93359375 C37.1658504 339.47444985 34.22925089 316.32645709 26.62890625 301.203125 C19.12383779 288.93426031 8.93349557 278.94012073 -2.37109375 270.203125 C-3.72698069 269.1437642 -5.08241789 268.08382761 -6.4375 267.0234375 C-10.27937228 264.02267765 -14.13165469 261.03555833 -17.98632812 258.05126953 C-21.12495178 255.61890046 -24.2576467 253.1789602 -27.39038086 250.73901367 C-33.20492001 246.21081673 -39.02582063 241.69159069 -44.87109375 237.203125 C-46.43969325 235.99635707 -48.00828489 234.78957887 -49.57666016 233.58251953 C-50.88794492 232.57452512 -52.20026366 231.56787538 -53.51318359 230.56201172 C-69.91536878 217.98526739 -69.91536878 217.98526739 -77.33984375 211.08203125 C-79.19774382 209.36347368 -81.10448898 207.74761905 -83.05859375 206.140625 C-104.51391721 187.72190184 -116.55196191 159.97304542 -118.94140625 132.19921875 C-119.47095104 124.69993796 -119.55489876 117.21873442 -119.55859375 109.703125 C-119.57696289 107.73666016 -119.57696289 107.73666016 -119.59570312 105.73046875 C-119.63270771 80.88805897 -112.25462205 58.64208723 -95.37109375 40.203125 C-94.61183594 39.36265625 -93.85257813 38.5221875 -93.0703125 37.65625 C-82.31095972 26.31578652 -69.57028079 18.50423123 -55.37109375 12.203125 C-54.75073242 11.92484863 -54.13037109 11.64657227 -53.49121094 11.35986328 C-37.09504189 4.17624294 -17.86780479 0.10577983 0 0 Z " fill="#D2042D" transform="translate(873.37109375,669.796875)"/>
<path d="M0 0 C41.58 0 83.16 0 126 0 C126 173.91 126 347.82 126 527 C84.42 527 42.84 527 0 527 C0 353.09 0 179.18 0 0 Z " fill="#4169E0" transform="translate(969,1318)"/>
<path d="M0 0 C41.58 0 83.16 0 126 0 C126 173.91 126 347.82 126 527 C84.42 527 42.84 527 0 527 C0 353.09 0 179.18 0 0 Z " fill="#4169E0" transform="translate(461,1318)"/>
<path d="M0 0 C10.91777394 5.93685403 16.28303 17.79780217 20.09228134 29.12921047 C21.16017003 33.48596874 21.32196225 37.34454771 21.29693604 41.8037262 C21.30005602 42.66554235 21.303176 43.5273585 21.30639052 44.4152903 C21.31434009 47.29068392 21.30805858 50.16586472 21.30175781 53.04125977 C21.30446916 55.10822167 21.3080309 57.17518261 21.31237793 59.24214172 C21.32149101 64.84995052 21.31796103 70.45768566 21.31161976 76.06549573 C21.30654946 81.94462101 21.31125452 87.82374007 21.31439209 93.7028656 C21.31803073 103.58292774 21.31323739 113.46295998 21.30371094 123.34301758 C21.29284768 134.74057661 21.29633689 146.13806396 21.30736375 157.53562123 C21.31646473 167.33718016 21.31770755 177.13871762 21.31248641 186.94027942 C21.30937942 192.78686917 21.30892183 198.63342535 21.31555939 204.48001289 C21.3213724 209.98512656 21.31726407 215.49014874 21.30577087 220.99525261 C21.30314442 223.00668563 21.30385455 225.01812645 21.3082962 227.02955627 C21.38610553 265.87309022 21.38610553 265.87309022 7.49609375 280.0390625 C3.59345108 283.17111967 -0.0413066 284.35642218 -4.95703125 285.0078125 C-5.78332031 285.11867188 -6.60960937 285.22953125 -7.4609375 285.34375 C-14.20567626 285.78706616 -19.46493225 283.89409017 -24.95703125 280.0078125 C-30.73291797 274.6409478 -33.07481377 267.49390475 -34.95703125 260.0078125 C-35.12573038 259.35068897 -35.29442951 258.69356544 -35.46824074 258.01652908 C-37.65791148 248.03072185 -37.25320869 237.87550368 -37.24755859 227.70996094 C-37.25355017 225.55536162 -37.26035716 223.40076444 -37.26791382 221.24617004 C-37.28551635 215.41747619 -37.29026676 209.58884112 -37.29154539 203.76012325 C-37.29297074 200.11208174 -37.2972476 196.46405499 -37.30253983 192.81601715 C-37.32102071 180.07085731 -37.32921282 167.3257392 -37.32763672 154.58056641 C-37.32643568 142.72959847 -37.34753578 130.87881276 -37.37912405 119.02789092 C-37.40533585 108.82793507 -37.41600197 98.62803857 -37.4147259 88.42804933 C-37.41421774 82.34724907 -37.41982038 76.26661091 -37.441082 70.18584442 C-37.46054722 64.46310153 -37.46053233 58.74067402 -37.44604874 53.01791954 C-37.44396984 50.9278816 -37.4486061 48.83782348 -37.46076965 46.7478199 C-37.62593402 16.38126348 -37.62593402 16.38126348 -27.95703125 5.0078125 C-20.47721365 -2.09801422 -9.63717953 -3.2336111 0 0 Z " fill="#FEFEFE" transform="translate(1667.95703125,1408.9921875)"/>
<path d="M0 0 C41.25 0 82.5 0 125 0 C125 28.71 125 57.42 125 87 C83.75 87 42.5 87 0 87 C0 58.29 0 29.58 0 0 Z " fill="#4069E0" transform="translate(969,1195)"/>
<path d="M0 0 C41.25 0 82.5 0 125 0 C125 28.71 125 57.42 125 87 C83.75 87 42.5 87 0 87 C0 58.29 0 29.58 0 0 Z " fill="#4069E0" transform="translate(462,1195)"/>
<path d="M0 0 C7.30564433 4.46373381 10.87019583 11.93359924 12.85688782 19.96983337 C13.1135866 21.32240753 13.35648996 22.67765632 13.5871582 24.03491211 C13.71370191 24.77154807 13.84024561 25.50818403 13.97062397 26.2671423 C15.24636264 34.30555899 15.29853018 42.24431081 15.2109375 50.36328125 C15.20532006 51.93081754 15.20106018 53.4983592 15.19807434 55.06590271 C15.18679413 59.12811659 15.15747927 63.1899921 15.1239624 67.2520752 C15.08739786 72.15993002 15.07401995 77.06790002 15.05660248 81.97585297 C15.02782583 89.37475999 14.97022392 96.77292938 14.91796875 104.171875 C-1.91203125 104.171875 -18.74203125 104.171875 -36.08203125 104.171875 C-36.24246649 87.17465291 -36.24246649 87.17465291 -36.27734375 79.8125 C-36.30106341 74.82957476 -36.32882062 69.84694917 -36.38378906 64.86425781 C-36.90144502 16.64867088 -36.90144502 16.64867088 -24.5390625 3.53515625 C-17.49496161 -2.7846155 -8.62062723 -3.64785025 0 0 Z " fill="#FEFCFC" transform="translate(602.08203125,750.828125)"/>
<path d="M0 0 C31 0 31 0 39 4 C48.34725027 13.34725027 47.3769827 29.99200517 47.38049316 42.37164307 C47.37868042 43.09462585 47.37686768 43.81760864 47.375 44.5625 C47.37518127 45.67694489 47.37518127 45.67694489 47.37536621 46.81390381 C47.29688894 80.77539985 47.29688894 80.77539985 37.1484375 92.05859375 C36.56320312 92.51363281 35.97796875 92.96867188 35.375 93.4375 C34.78460938 93.91058594 34.19421875 94.38367188 33.5859375 94.87109375 C24.44701956 101.37638263 11.21778073 97 0 97 C0 64.99 0 32.98 0 0 Z " fill="#FEFDFD" transform="translate(281,694)"/>
</svg>
